<?xml version="1.0" encoding="UTF-8" standalone="no"?>
<!DOCTYPE svg PUBLIC "-//W3C//DTD SVG 1.1//EN"
"http://www.w3.org/Graphics/SVG/1.1/DTD/svg11.dtd">


<!-- Page 1 -->
<svg x="0" y="0" width="351" height="351" viewBox="0 0 351 351" version="1.1" xmlns="http://www.w3.org/2000/svg" xmlns:xlink="http://www.w3.org/1999/xlink"
style="display: block;margin-left: auto;margin-right: auto;">
<defs>
<clipPath id="c_1"><path d="M0,0H351V351H0Z" /></clipPath>
<clipPath id="c0_1"><path d="M179.1,320.3c.1,0,.3,0,.5,0c2.6,-.1,5.2,-.3,7.8,-.4v.1c.3,0,.5,0,.8,0c.1,0,.3,0,.4,0c.9,.1,1.7,.2,2.5,.2c4,0,7.3,-1.5,10.2,-4.9c4.1,-4.6,9.1,-8.3,14.5,-11.3c1.7,-.9,1.3,-1.4,.1,-2.2c-3,-2.1,-5.8,-4.4,-8.4,-7.1c-3.5,-3.4,-7.7,-5.5,-12.7,-5.5c-.4,0,-.8,0,-1.2,0c-.8,.1,-1.5,.1,-2.3,.1c-1.7,0,-3.3,-.1,-5,-.1q-.1,0,-.2,0c-1.2,0,-2.2,.3,-3.2,.9c-6.1,3.8,-11.4,8.6,-17.1,12.9c-.7,.5,-.8,.8,-.2,1.6c3,3.6,5.3,7.7,8.5,11.3c.3,.3,.6,.6,.7,1c1,2.7,1.7,3.4,4.3,3.4ZM106.1,287c.4,0,.9,-.1,1.4,-.2c5.8,-2.3,12.1,-2,18,-3.7c4.4,-1.2,8.8,-2.2,13.2,-3.4c1.1,-.3,1.5,-.8,1.4,-2c-.2,-4.9,-.3,-9.8,-1.8,-14.6c-.3,-1.1,-.3,-2.3,-.6,-3.4c-.7,-3.4,0,-6.8,-.3,-10.8c-.1,-3.1,0,-6.8,-.4,-10.4c-.1,-.6,0,-1.4,-.6,-1.4c-.1,0,-.3,0,-.5,.2c-1.4,.7,-2.9,.5,-4.4,.6c-2.3,.2,-4.5,.9,-6.5,2.1c-5,3.2,-9.5,7.1,-15,9.5c-1.4,.6,-2.7,1.4,-3.7,2.6c-2.3,2.6,-5.1,4.6,-7.8,6.7c-4.5,3.4,-9.8,5.8,-13.9,9.9c-.9,.9,-.9,1.2,.1,1.9c2.4,1.6,4.9,3.2,7.3,4.9c3.5,2.5,6.6,5.5,8.5,9.5c.2,.3,.2,.9,.6,.9c1.7,.1,3.3,1.1,5,1.1ZM303,290c1.2,0,2,-.6,2.8,-1.8c2.4,-3.5,5.7,-6.4,8.1,-10c.5,-.8,.8,-1.5,-.4,-1.9c-4.1,-1.3,-7.1,-4.2,-10.5,-6.6c-4.2,-2.9,-8.7,-5.2,-12.3,-8.9c-1,-1,-1.9,-2.1,-3.1,-2.8c-4.2,-2.8,-8.5,-5.3,-12.4,-8.1c-7.5,-5.4,-15.6,-10.1,-21,-17.9c.4,1.8,1.3,3.5,1.6,5.4c.3,2.7,.4,5.4,.7,8c1,7.7,1.7,15.4,2.5,23.1c.2,1.7,.8,3.2,2.4,4.2c1.6,.9,2.9,2.2,4.3,3.3c2.9,2.2,5.4,5,8.9,6.3c3.6,1.4,7.2,2.6,10.9,3.5c5.4,1.3,10.8,2.5,16.2,4c.5,.1,.9,.2,1.3,.2ZM143.9,320.3v0c3.6,-4.6,7.9,-8,11.8,-11.7c7,-6.9,15.1,-12.4,22.7,-18.5c2.2,-1.8,4.7,-3.5,7.8,-3.5c3.8,0,7.6,0,11.4,-.1c.8,0,1.5,.3,2.2,.5c4.6,1.7,8.1,4.7,11.9,7.8c6.2,5,11.6,10.9,18.5,15c.4,.2,.8,.5,1.1,.9c2.3,2.7,5.3,4.7,7.1,7.9c.1,.1,.2,.2,.5,.2c.1,0,.2,0,.4,-.1c-.5,-2.4,-.6,-5,.1,-7.4c1.3,-4.8,1.7,-9.6,2.5,-14.5c.8,-5.4,1.4,-10.9,2.3,-16.3c1.8,-10.1,4.9,-20,7.8,-29.8c2.1,-7.2,1.6,-14.3,-1.9,-21c-.2,.3,-.4,.7,-.6,1.1c-1.3,1.9,-2.3,3.9,-2.9,6.1c-.6,1.9,-2.4,3.2,-3.4,4.9c-3.4,5.9,-6.8,11.9,-11.7,16.7c-2.4,2.4,-4.8,4.9,-7,7.5c-3.4,3.9,-7,7.5,-11.1,10.7c-4,3,-8.7,4.9,-12.2,8.6c-.4,.4,-1.1,.6,-1.6,.7c-.4,0,-.8,0,-1.2,0c-3.1,0,-6,-.7,-8.5,-2.5c-3.1,-2.1,-5.8,-5,-9.2,-6.4c-4.6,-1.9,-8.3,-5.1,-12.2,-7.9c-4.4,-3.1,-8.4,-6.6,-13.3,-8.7c-3.3,-1.4,-6,-3.6,-8.1,-6.6c-1.4,-1.8,-2.7,-3.6,-3.5,-5.8c-.6,-1.7,-1.7,-3.2,-3,-4.8c-.1,1.3,-.2,2.4,-.3,3.4c-.4,5.2,-1,10.5,.6,15.5c1.1,3.3,1.4,6.7,1.7,10.1c.6,5.9,.2,11.8,.3,17.7c0,1.5,.2,3,.4,4.6c.6,5.3,1.2,10.7,.7,16.2c-.3,3,-.1,6.1,-.1,9.5ZM121.1,167v0c-.9,-4.2,-.8,-8.5,-3.2,-12.7c-.3,1.7,-2.1,3.2,-.6,4.6c1.7,1.6,2,3.6,2.5,5.6c.2,.9,.2,1.9,1.3,2.5ZM261.2,154.6c.7,0,.8,-.8,1,-1.5c.7,-2.7,1.5,-3.4,3.9,-3.4c.3,0,.6,0,1,0c.1,0,.3,0,.4,0c.6,0,1.2,-.1,1.5,-.7c2,-3,4.3,-5.9,4.3,-9.7c.1,-2.9,-1,-4.1,-3.9,-4.1c0,0,-.1,0,-.1,0c-.3,0,-.6,0,-.9,0c-.9,0,-1.8,-.1,-2.5,-1.1c-.1,.5,-.2,.7,-.2,1c-.7,3.2,-.9,6.7,-4,8.9c-.1,.1,-.3,.4,-.3,.6c.8,2.9,-.8,5.4,-.9,8.1c0,.7,-.7,1.7,.5,1.9c0,0,.1,0,.2,0ZM121.9,180.7c.9,0,1.3,-.6,1.1,-1.6c-.4,-1.6,-.5,-3.2,-.7,-4.8c-.2,-1.1,-.2,-2.4,-1.9,-2.6c-.6,0,-.8,-.8,-.9,-1.4c-.9,-2.6,-2,-5.1,-2.5,-7.8c-.2,-.6,-.4,-1.1,-.8,-1.6c-1.9,-2,-2,-3.3,-.7,-5.7c.5,-1.1,1.1,-2.1,1.5,-3.3c.3,-.6,.5,-1.4,0,-1.9c-1.8,-1.6,-1.5,-3.9,-2.2,-5.9c-.2,-.5,0,-1.2,-.5,-1.4c-1.4,-.5,-1.2,-1.8,-1.3,-2.9c-.9,-4.4,-1.2,-8.8,-1,-13.6c-.4,.5,-.7,1.1,-.8,1.1c0,0,-.1,0,-.1,0c-.7,-.2,-.6,-.9,-.7,-1.4q-.7,-3.8,-4.4,-4.4c-.6,-.1,-1.2,-.3,-1.8,-.3c-.5,0,-1.1,-.4,-1.5,-.4c-.3,0,-.5,.2,-.6,.5c-.2,.9,.6,1.9,1.5,2.4c.2,.2,.6,.2,.9,.3c1.5,.7,3,1.4,4.5,2.2c.5,.3,1.2,.6,.8,1.4c-.2,.3,-.5,.4,-.8,.4c-.3,0,-.6,0,-.8,-.2c-.9,-.3,-1.7,-.8,-2.5,-1.2c-.3,-.1,-.5,-.3,-.8,-.3c-.2,0,-.4,.2,-.5,.5c-.9,1.9,-.2,5.2,1.4,6.6c.5,.5,1,1.1,1.3,1.8c.1,.4,.1,.8,-.3,1c-.1,.1,-.3,.2,-.4,.2c-.2,0,-.5,-.1,-.7,-.3c-.6,-.6,-.9,-1.5,-2.1,-1.5c0,3.3,.2,6.5,2.1,9.4c1.2,1.8,1.7,3.9,1.9,6c.3,2.5,.8,5.1,2.2,7.2c2.2,3.2,3.1,6.7,3.5,10.4c.2,2.7,.4,5.4,.9,8c.2,1.6,.7,3.2,2.5,3.8c1.5,.5,3.1,.9,4.7,1.2c.1,.1,.3,.1,.5,.1Zm136,-6.5c.3,0,.6,-.1,.9,-.3c2,-.7,3.9,-1.6,5.9,-2.1c2.9,-.7,4.1,-2.6,4.7,-5.3c.7,-2.6,1.3,-5.3,2.8,-7.7c2.3,-3.4,3.2,-7.3,3.7,-11.3c.4,-4,.2,-8.1,2.9,-11.5c.2,-.2,.3,-.7,.2,-.7c-2.3,-1.7,.1,-2.3,.8,-3.1c.8,-1.1,2.2,-1.8,2.3,-3.2c.3,-2.6,0,-5.2,-.4,-7.8c-.1,-.7,-.4,-1.1,-.9,-1.1c-.2,0,-.5,.1,-.9,.3c-1.8,1.2,-3.7,2.4,-5.5,3.6c-.4,.2,-.7,.4,-1.1,.4c-.2,0,-.5,-.1,-.7,-.4c-.4,-.7,.1,-1.1,.7,-1.5c2,-1.3,4,-2.7,6.1,-3.9c.8,-.5,1.5,-.8,2.1,-.8c.9,0,1.4,.8,1.8,2.3c.5,1.8,.7,3.8,1,5.7c.2,-3.6,.8,-7.2,0,-10.8c-.2,-1.1,-.7,-1.6,-1.7,-1.6c-.1,0,-.2,0,-.3,.1c-3.4,.3,-6.5,1.3,-9.5,2.8c-2.6,1.2,-3.7,3.1,-4,5.5c-.5,3.4,.3,6.9,-1.8,10.4c.8,-.1,1.5,-.2,2.1,-.2c1,0,1.9,.2,2.8,.7c3.5,1.9,4.7,5.1,3.6,9.4c-.7,2.8,-2.7,5,-3.9,7.6c-.9,1.8,-1.3,2.4,-2.6,2.4c-.4,0,-.9,-.1,-1.6,-.2c-.5,-.1,-.9,-.1,-1.3,-.1c-1.4,0,-1.8,.7,-1.9,2.7c-.1,1.1,.1,2,.5,3c.5,1.5,1.3,2.9,1.2,4.6c-1.1,-1.4,-2.2,-2.6,-2.7,-4.3c-.2,-.9,-.8,-1.3,-1.9,-1.4c-1.2,0,-1.2,.8,-1.4,1.6c-1.4,4.9,-1.6,10,-2.4,15c-.1,.9,0,1.2,.4,1.2ZM153.2,84.3v0c3.4,0,4.2,-1.4,4.8,-4.4c-1.8,1.3,-2.8,3.4,-4.8,4.4Zm22.3,260.4c-1,-1.4,-1,-2.7,-1.1,-4c-.2,-3,0,-5.9,.5,-8.8c.8,-5.6,-1.7,-9.9,-4.9,-13.9c-1.9,-2.4,-4,-4.6,-5.8,-7c-1.1,-1.5,-1.5,-3.5,-3.3,-4.6c-1.5,3.4,-4.4,5.6,-7.1,7.9c-3.5,3.1,-6.5,6.8,-9.8,10.1c-.6,.7,-.6,1.4,-.6,2.2c-.1,4.3,-.4,8.5,-1.1,12.7c-.2,1.1,-.5,2.2,-1.1,3.2c-.2,.3,-.4,.6,-.8,.6c0,0,-.1,0,-.1,0c-.5,-.1,-.6,-.6,-.6,-1c-.2,-1.9,-.1,-3.9,.2,-5.8c.3,-2.6,.5,-5.2,.3,-7.8c-.2,-6.2,.9,-12.5,.4,-18.7c-.8,-8.8,-.3,-17.7,-.4,-26.5c-.1,-.9,-.2,-1.3,-.7,-1.3c-.2,0,-.5,.1,-.8,.2c-5.9,1.6,-11.7,3.3,-17.7,4.5C108,289.5,94.8,291,81.5,291c-1.4,0,-2.8,0,-4.3,-.1c-.3,0,-.6,0,-.9,0c-2.6,0,-5.3,.3,-7.8,1c-1.2,.4,-1.7,.9,-1.1,2.2c1.2,2.5,1.1,5.2,.7,7.7c-.5,3.2,0,6.3,.1,9.4c.5,7.9,.5,15.8,0,23.8c0,.5,-.1,1.2,-.3,1.7c-.2,.8,-.1,1.9,-1.1,1.9c-.9,0,-1.1,-1.1,-1.4,-1.9c-.6,-1.9,-.8,-3.9,-.8,-5.9c0,-9.3,.3,-18.6,-.8,-27.9c-.4,-3.3,-.8,-6.5,-2.4,-9.5c-1,-1.7,-.5,-3.2,1,-3.7c4.5,-1.4,9,-2.8,13.7,-2.8c.5,0,1.1,0,1.6,.1c1.2,.1,2.5,.1,3.7,.1c3.4,0,6.8,-.2,10.2,-.2c1,0,2,0,3,0c.2,0,.5,.1,.8,.1c.4,0,.6,-.1,.8,-.4c.2,-.6,-.4,-1.2,-.8,-1.5C92,282.1,89.1,278.5,85.2,276c-1.6,-1.2,-3.4,-2.2,-4.8,-3.7c-.3,-.3,-.7,-.6,-1.2,-.6c-.9,-.1,-1.7,-.5,-1.9,-1.5c-.2,-1,.4,-1.7,1.2,-2.2c4.2,-2.9,7.9,-6.7,12.6,-9.2c6.1,-3.3,11.2,-8.2,17.4,-11.6c3,-1.6,5.9,-3.3,8.7,-5.3c.8,-.5,1.6,-.9,2.4,-2c-3.9,.8,-7.5,1.6,-10.9,3.1c-4.5,2.1,-9.4,3.2,-14.1,4.7c-5.4,1.8,-11,3.3,-16.6,4.6c-11.4,2.5,-22.9,4.8,-34.2,7.9c-8.5,2.3,-16.6,5.7,-24.7,9.1c-1.8,.8,-3.6,1.8,-5.7,2c-.1,0,-.3,0,-.5,0c-.9,0,-1.8,-.3,-2.1,-1.3c-.4,-1.3,.8,-1.6,1.6,-2.1c6.4,-3.4,13.1,-6.2,19.9,-8.7c4.9,-1.8,9.8,-3.6,14.8,-5.2c3.6,-1.1,7.3,-1.4,11,-2.3C64.4,250.2,70.6,248.3,77,247c11.1,-2.2,21.6,-6.3,32.2,-9.9c5,-1.7,10.2,-2.8,15.4,-3.6c3.2,-.4,6.1,-1.7,8.9,-3.1c.6,-.4,1.3,-.7,2,-1c3.3,-1.3,4.2,-3.2,2.6,-6.6c-2.1,-4.4,-4.6,-8.8,-6.6,-13.3c-2.7,-6,-6,-11.9,-6.8,-18.6c-.2,-1.7,-1.1,-3.2,-1.6,-4.8c-.1,-.6,-.6,-.9,-1.2,-1c-1.7,-.5,-3.2,-1.1,-4.9,-1.4c-4,-.6,-5.7,-3.3,-6.7,-6.9c-.8,-3,-.6,-6.1,-1,-9.2c-.5,-3.1,-1.3,-6,-3.2,-8.7c-1.9,-2.7,-1.9,-6.1,-2.9,-9.2c-.4,-1.1,-.5,-2.4,-1,-3.4C99.9,142.1,99.5,137.6,99.5,133c0,-1.9,.1,-3.9,.1,-5.8c0,-1.2,-.2,-2.2,-.9,-3.2c-1.2,-1.8,-1.1,-3.8,-.2,-5.7c.8,-1.5,2.1,-1.6,3.4,-1.6c.2,0,.5,0,.7,0c.1,0,.3,0,.4,0q.1,0,.2,0c1,.2,2.3,.8,3.3,.8c.2,0,.4,0,.7,-.1c.7,-.3,.5,-2.4,.9,-3.7c.1,-.4,.4,-1,.9,-1c.2,0,.3,0,.4,0c.6,.3,.4,.9,.3,1.4c-.2,1.3,-.4,2.5,-.6,3.8c-.1,.4,.1,.8,.6,.8c.5,0,.4,-.4,.4,-.7c.1,-.3,0,-.7,.1,-1c.2,-.7,0,-2.1,.8,-2.1c1.1,.1,1,1.4,1,2.3c.1,2.1,0,4.2,0,6.6c.5,-.5,.7,-1.3,1.2,-1.3c.1,0,.2,.1,.3,.1c.7,.3,.6,1,.6,1.6c0,1.5,0,2.9,-.1,4.4c-.2,3.2,1.5,6.2,.7,9.4c.7,-.5,.5,-1.1,.5,-1.6c0,-1.9,0,-3.9,.4,-5.8c.2,-.7,1.1,-1.7,-.7,-2.1c-.9,-.1,-.5,-1.6,-.2,-2.5c1.6,-5.2,3.6,-10.4,6.5,-15.1c.3,-.4,.5,-.9,.6,-1.6c-1.5,1.8,-3.1,3.7,-4.6,5.6c-.3,-1.6,0,-2.3,2.2,-5.8c1.1,-1.7,2.4,-3.3,3.3,-5.8c-2.1,1.5,-3.3,3.4,-5.2,4.2c-.3,-.2,-.3,-.5,-.2,-.8c1.4,-4.4,3.6,-8.4,6.1,-12.3c.3,-.4,1.1,-.9,.5,-1.5c-.2,-.2,-.4,-.3,-.6,-.3c-.4,0,-.9,.4,-1.2,.6c-.9,.7,-1.8,1.5,-2.7,2.1c-.4,.3,-.9,.6,-1.4,.6c-.3,0,-.5,-.1,-.8,-.4c-.9,-.8,.1,-1.4,.6,-2c2,-2.6,4.3,-4.9,7,-7c-.2,-.1,-.4,-.1,-.6,-.1c-1.4,0,-2.6,1,-3.9,1c-.5,0,-1,-.2,-1.6,-.6c.9,-1.1,1.9,-2.4,2.9,-3.7c-.1,0,-.2,-.1,-.4,-.1c-.3,0,-.6,.3,-.9,.3c-.2,0,-.3,-.1,-.5,-.3c0,-.7,.6,-.8,1,-1.1c1,-1.2,1.9,-2.2,2.7,-3.8c1.3,-3,3.8,-5.6,7.2,-6.8c1.9,-.7,3.8,-1.2,5.9,-1.2c.2,0,.4,0,.6,0c.1,0,.2,0,.3,0c2.8,0,5.5,-1.4,8.2,-2.3c.4,-.1,.8,-.5,1.2,-.5c.2,0,.4,0,.6,.2c.9,.7,-.1,1.4,-.1,2.2c.1,0,.2,0,.2,0c.5,0,.8,-.3,1.2,-.4c.4,-.1,.7,-.3,1.1,-.3c.1,0,.3,0,.5,.2c.6,.5,-.2,.9,-.4,1.3c-.1,.4,-.2,.7,.1,1c.1,0,.2,.1,.3,.1c.2,0,.4,-.2,.6,-.2c1.4,-.4,2.6,-1,3.7,-2c.5,-.5,.9,-.7,1.2,-.7c.5,0,.8,.5,.9,1.5c0,.7,.4,.6,.9,.6c1.8,.4,2.1,.9,1.5,2.8c-.3,1.1,-1.2,2.1,-.9,3.4c.4,0,.8,-.1,1.1,-.1c2,0,1.9,1.1,.3,5.4c.1,0,.2,0,.3,0c.8,0,1.5,-.4,2.2,-.6c.4,-.1,.7,-.4,1,-.4c.2,0,.3,0,.5,.1c.6,.6,0,1.1,-.3,1.7c-.1,.3,-.3,.5,-.6,1.1c1.5,-.4,2.2,-1.4,3.2,-2.1c.5,-.4,.9,-1.1,1.5,-1.1c.1,0,.2,0,.3,0c.8,.4,0,1.4,.1,2.1c4.3,-.4,7.2,-3.3,10.9,-6c-.7,2.4,-2.1,3.4,-3.3,4.6c-1.1,1.1,-3.4,1.1,-3,3.8c11.4,-4.3,22.1,-9.6,32.9,-14.8c-1.2,2.5,-4.3,2.9,-5.9,5.5c2.4,-.7,4.5,-.9,6.2,-2.4c2.2,-1.8,4.4,-3.5,6.8,-5c.4,-.2,.8,-.4,1.1,-.4c.3,0,.6,.2,.9,.9c.2,.7,.9,1.4,1.8,1.4c2.9,.2,4.5,2.2,6.1,4.2c.5,.6,1,1.3,1.6,2.1c.5,-.6,.5,-1.2,.2,-1.5c-1.3,-1.3,-.1,-3.2,-1,-4.5c-.1,-.1,.1,-.6,.3,-.7c.1,-.1,.2,-.1,.3,-.1c.3,0,.5,.2,.8,.3c2,1.3,3.8,2.9,5.6,4.5c.7,.6,1.3,1.1,2.1,1.9c0,-1.5,-.6,-2.7,-.5,-4c.1,-.8,.2,-1.1,.5,-1.1c.2,0,.5,.1,1,.4q.1,0,.2,0c.3,0,.3,-.4,.5,-.6c.7,-.8,1.2,-1.2,1.7,-1.2c.5,0,.9,.5,1.4,1.5c1.6,2.8,3.9,4.8,6.6,6.4c.8,.5,1.6,.5,2.5,.6c.4,0,.8,.1,.9,.6c.1,.3,-.2,.6,-.6,.6c-1.5,.4,-1.3,1.1,-.6,2.2c.8,1.1,1.3,2.3,.6,3.7c-.6,1.1,.2,1.8,.8,2.5c.6,.8,2,1.8,.9,2.6c-.1,.1,-.3,.1,-.4,.1c-.6,0,-1.2,-1.2,-1.7,-1.8c-.9,-1,-1.7,-2.1,-2.4,-3.2c-.4,-.5,-1.7,-1.3,.1,-1.8c.4,-.1,0,-.7,-.1,-1.1c-.5,-1.2,-1.4,-2.2,-2.4,-3c-1.8,-1.4,-3.5,-2.9,-5.7,-4.9c0,2.9,0,5.3,0,7.6c0,.7,-.1,1.4,-.2,2c-.2,.8,-.5,1.5,-1.4,1.5c-1,0,-1,-.9,-1,-1.5c.1,-5.4,-3.7,-8.3,-7.4,-11.3c0,.2,-.1,.3,-.1,.4c2.7,3.6,1.4,7,-.4,10.5c-.1,.1,-.2,.3,-.3,.5c-.1,.7,0,1.7,-.9,1.7c-.1,0,-.2,0,-.2,0c-1.2,-.1,-1.7,-1.3,-1.5,-2.3c.7,-3.6,-1.7,-6.2,-3.1,-9c-.4,-.9,-1,-1.5,-2.1,-1.5c-.1,0,-.2,0,-.3,0h-.1c-1.1,0,-1.5,-1.3,-2.2,-2c-.4,-.5,-.7,-.7,-1,-.7c-.3,0,-.6,.2,-1,.5c-3.1,3,-6.8,4.8,-10.9,5.9c-4.6,1.2,-8.8,3.3,-12.9,5.9c-.6,-1.4,.5,-2.1,1.2,-3.5c-3.5,2.1,-6.6,3.9,-9.7,5.8c-2,1.2,-4,2.5,-6.1,3.4c-.4,.2,-.8,.5,-1.2,.5c-.3,0,-.6,-.2,-.9,-.7c0,-.1,-.2,-.2,-.4,-.2c-.3,0,-.6,.1,-.9,.2c-1.2,.3,-2.4,.8,-3.7,.9c-.2,.1,-.7,.3,-1,.3c-.4,0,-.7,-.2,-.4,-1.2c.2,-.9,-1.2,-.5,-1.6,-1.2c.4,-.9,1.5,-1.1,2.2,-2c-2.1,.8,-4,1.5,-6,2.1c-.5,.1,-1,.3,-1.5,.3c-.4,0,-.7,-.1,-1,-.4c-.6,-.8,.7,-1.2,1,-2.2c-1.9,.6,-3.7,1.1,-5.4,1.8c-.5,.2,-1,.4,-1.4,.4c-.4,0,-.7,-.2,-.9,-.6c-.6,-1,.5,-1.4,1.1,-1.8c.5,-.3,.9,-.6,1.2,-1.2c-.1,.2,-.3,.2,-.5,.2c-.2,0,-.4,-.1,-.4,-.4c0,-.7,-.3,-1,-.7,-1c-.2,0,-.4,.1,-.7,.2c-.1,0,-.2,0,-.3,0c-.3,0,-.6,-.1,-.6,-.5c-.1,-.4,.3,-.5,.6,-.7c2.7,-1.8,3.8,-4.8,5.4,-7.4c.1,-.2,.4,-.6,0,-.9c-.1,0,-.3,-.1,-.4,-.1c-.3,0,-.5,.2,-.7,.4c-.3,.3,-.5,.8,-.9,1c-.7,.6,-1.6,1.4,-2.4,1.4c0,0,-.1,0,-.1,0c-1,-.1,-.2,-1.5,-.9,-2.4c-2,1.2,-4,2.4,-4.7,4.9c-.3,.8,-.5,1.8,-1.3,1.8c-.2,0,-.3,0,-.5,-.1c-1.3,-.4,-.7,-1.6,-.4,-2.5c.7,-2,1.7,-3.7,2.9,-5.8c-1.7,.4,-2.9,1,-4,2c-.5,.4,-1,.9,-1.7,.9c0,.1,-.1,.1,-.2,.1c-.5,0,-.9,-.2,-1.2,-.6c-.4,-.6,-.1,-1.1,.3,-1.5c.6,-.6,1.3,-1.1,2.4,-2.1c-4.4,1.3,-8.5,1.7,-10.7,5.8c-.2,.4,-.9,1.7,-1.6,1.7c-.4,0,-.8,-.4,-1.3,-1.4c0,-.1,-.1,-.2,-.2,-.2c-.6,0,-1.8,1,-1.7,1.8c.4,2.1,-.6,3.5,-1.9,5c.9,.2,1.6,.8,2.4,.8c.4,0,.7,-.1,1.1,-.4c0,0,.1,-.1,.1,-.1c.2,0,.5,.2,.6,.3c.2,.4,-.1,.8,-.4,1c-1.6,1.3,-2.1,3.6,-4.4,4.4c.4,.4,.8,.5,1.1,.5c.3,0,.7,-.2,1,-.3c.4,-.1,.9,-.4,1.3,-.4c.2,0,.5,.1,.7,.4c.5,.9,.4,1.9,-.3,2.6c-.8,1,-1.8,1.9,-2.6,2.9c-1.1,1.5,-2.2,3,-3.2,4.7c1.5,-1,2.4,-2.6,4,-3.5c.5,-.2,1,-.8,1.5,-.8c.2,0,.4,.1,.6,.4c.6,.6,-.2,1.3,-.6,1.9c-1,1.4,-2.1,2.6,-2.4,4.4c.1,.1,.3,.1,.4,.1c.3,0,.6,-.2,.9,-.2c.3,0,.5,.1,.6,.5c.3,.7,-.2,1.2,-.5,1.8c-1.4,2.9,-3.3,5.6,-4.5,8.6c-.8,1.9,-1.6,4.1,-1.2,6.4c.3,2,-.6,3.8,-1.2,5.7c-1.4,3.9,-2.7,7.8,-2.4,12.1c.1,2.1,.3,4.3,.2,6.5c0,1.4,1.1,2.1,1.5,3.3c.5,1.8,.5,3.9,1.6,5.6c.4,.6,.5,1.5,.5,2.3c.2,6.2,1.9,12.1,2.6,18.2c.2,1.4,.1,2.9,.6,4.4c.4,1.2,.3,2.5,2,2.9c.6,.1,.6,.8,.3,1.3c-.3,.6,-.1,1.2,.1,1.8c3.6,11.4,8,22.5,13.9,33c1.5,2.7,2.9,5.5,4.3,8.4c2.2,4.5,5,8.8,7.3,13.3c1.8,3.6,4.7,6.4,6.3,10c.4,.8,1.3,1.4,2,1.9c8,5.3,16.9,8.3,26.4,8.9c2.1,.1,4.4,.4,6.6,.4c1,0,2.1,-.1,3.1,-.3c5,-.9,10.1,-1.7,14.9,-3.7c3.6,-1.5,6.1,-4.3,8.8,-6.8c.8,-.7,1.6,-2.1,2.5,-2.1c.3,0,.5,.1,.8,.4c.9,.9,-1,2.1,-1.8,3.1c-2,2.3,-4.2,4.4,-6.6,6.1c-2.7,2,-6,3.3,-9.4,3.8c-3.9,.6,-7.8,1.9,-11.8,1.9c-.4,0,-.7,0,-1.1,0c0,0,-.1,0,-.1,0c-.6,0,-.8,.3,-.6,1c.6,2,.7,4.1,2.8,5.3c.4,.2,.7,.5,.6,1c-.1,.4,-.4,.5,-.7,.5c-.2,0,-.4,-.1,-.5,-.1c-1.1,-.2,-1.9,-.9,-2.5,-1.9c-.6,-1.2,-1.2,-2.5,-1.4,-3.9c-.2,-1.8,-1.2,-2.4,-2.9,-2.7c-5.4,-.8,-10.8,-1.8,-16.1,-3.5c-2.7,-.8,-5,-2.4,-7.5,-3.6c-4.5,-2.2,-7.8,-5.2,-10.3,-9.4c-1.5,-2.6,-3.9,-4.6,-5.9,-6.9c-1.4,-1.7,-2.2,-3.8,-3.3,-5.7c-.4,-.8,-.7,-1.7,-1.6,-2.3c-1.1,1.5,-1.5,3.2,-1.1,4.9c1.1,5,2.4,10,4.9,14.6c2.6,4.6,7,7.2,11.6,9.5c4.4,2.2,8.4,4.9,12.3,8c3.4,2.7,7.1,5.3,11.1,7.3c3.3,1.6,6.4,3.6,9.1,5.9c1.6,1.3,3.8,2,5.9,2c1.1,0,2.3,-.2,3.3,-.6c9.1,-4.1,16.5,-10.3,23,-17.9c3.5,-4.2,7.6,-7.9,11.1,-12.2c.6,-.6,1.3,-1.2,1.6,-2c2.9,-6,7.4,-11,10.2,-17c1.7,-3.5,2.6,-7,2.1,-10.9c-.3,-2.2,-.4,-4.5,.2,-6.8c.2,-.7,.2,-1.4,0,-2.1c-.1,-.1,-.2,-.1,-.3,-.1c-.4,0,-.5,.4,-.6,.7c-2.7,4.2,-4.8,8.8,-6.2,13.6c-1.9,6.5,-5.8,11.6,-11.1,15.6c-1,.6,-1.8,1.4,-2.7,2.1c-.5,.3,-.9,.8,-1.5,.8c-.3,0,-.5,-.1,-.8,-.2c1,-1.8,2.5,-3.1,3.7,-4.5c4.2,-5.2,8.5,-10.4,11.2,-16.5c1.1,-2.7,1.5,-5.6,2.6,-8.2c1.2,-3.1,3,-5.9,4.3,-8.9c2.1,-5,4.1,-10.1,4.8,-15.7c.7,-5,1.4,-10,3,-14.9c1.6,-4.9,1.4,-10.2,2.6,-15.2c1.1,-5.1,1.8,-10.3,2.5,-15.4c.3,-2.6,1,-4.9,1.5,-7.4c.2,-.9,.4,-1.6,-.6,-2.4c-.8,-.8,-.8,-2.3,-1,-3.4c-.4,-2.5,-.7,-5.1,-1.4,-7.5c-.7,-2.1,-.8,-4.3,-3.2,-6c-2.9,-2.1,-4.8,-5.7,-7.2,-8.6c-.1,-.1,-.2,-.3,-.2,-.3c1,-2.1,-1,-2.8,-1.8,-4c-.1,-.2,-.3,-.7,-.2,-.7c1.7,-1.5,0,-2.5,-.5,-3.5c-1.3,-2.2,-2.1,-4.4,-2,-7c.9,0,1,.9,1.7,1c.2,.4,.5,.8,.8,1.2c.8,1.9,2.4,3.2,3.5,4.8c.4,.7,2.3,1.4,.4,2.7c-.2,.1,.6,.9,.9,1.3c.8,1,2.3,1.5,1.8,3.3c0,.2,.7,.7,1.2,1c.4,.4,1.2,.5,1,1.3c-.2,.4,-.5,.5,-.9,.5c-.2,0,-.5,0,-.7,0h-.8c.7,1.6,1.9,2.8,3.1,4.1c0,-.4,0,-.6,0,-.8c-.2,-.5,-.6,-1.1,0,-1.4c.1,-.1,.3,-.1,.4,-.1c.5,0,.7,.6,1,1c2,3.4,3.4,7.1,4.1,11c.5,3.5,2,6.7,2.9,10.5c.2,-2.6,1.1,-4.7,2.2,-6.7c.7,-1.3,1.1,-2.7,.9,-4.2c-.8,-5.2,1.4,-9.6,4.5,-13.3c3.2,-3.8,3.9,-8.4,5,-12.9c1.1,-4.7,.2,-9.5,.7,-14.2c.1,-.3,0,-.6,-.1,-.8c-1.8,-3.8,-2.3,-8.1,-3.9,-12C271.4,69,270.6,65.3,269,61.8c-1,-2.2,-1.8,-4.6,-2.3,-7c-.3,-1.1,-1,-2,-1.7,-2.9c-2.5,-2.9,-5,-5.6,-7.2,-8.6C257,42.2,256,41.1,255.6,39.7C254.1,34,250.1,30.1,246.1,26.1c-.9,-.9,-1.8,-1.9,-3.1,-1.9c-.4,0,-.9,.1,-1.3,.3c-.1,0,-.2,.1,-.2,.1c-.4,0,-.7,-.5,-1,-.7C234.2,19,227.2,15.7,219.2,15.1c-.3,0,-.5,-.1,-.7,-.1c0,0,-.1,0,-.1,0c-1,.2,-1.9,.3,-2.9,.3c-4,0,-7.9,-1.8,-11.9,-2.2c-.4,0,-.7,-.1,-1.1,-.1c-.4,0,-.8,.1,-1.3,.5c-.4,.3,-.9,.4,-1.5,.4c-.6,0,-1.3,-.1,-1.9,-.3c-2.1,-.6,-4.2,-.9,-6.3,-.9c-4.3,0,-8.5,1.3,-12.4,3.9c-.4,.2,-.8,.4,-1.2,.4c-.3,0,-.6,-.1,-.8,-.4c-.7,-.7,-.1,-1.4,.4,-1.9c.4,-.6,.9,-1,.8,-2c-1.2,.6,-2.5,.9,-3.2,1.7c-1.2,1.3,-2.7,1.6,-4.3,2c-4.4,1.2,-8.6,2.8,-12.9,4.3c-4.8,1.8,-9.9,3.6,-12.6,8.7c-.1,.2,-.3,.4,-.6,.4c-.1,0,-.2,0,-.3,-.1c-.7,-.3,-1.1,-.9,-1,-1.6c.2,-1.3,.5,-2.5,.8,-4.1c-1.7,1.6,-2.6,3.5,-3,5.3c-1.2,4.9,-5.1,7.3,-8.6,10.1c-5.7,4.6,-11.4,9.4,-15.9,15.3c-3.9,5.1,-6.1,11.2,-6.7,17.9c-.4,4.3,-1.9,8.5,-2.9,12.7c-.2,.9,-.5,1.4,.6,2.2c1,.8,.6,2.6,.4,4.1c-.1,.8,-.4,1.6,.9,2.1c.8,.3,.6,1.1,.4,1.9c-.4,1.2,-.8,2.4,-1.2,3.7c-.4,1.2,-1,2.2,.1,3.7c1,1.3,-.6,2.9,-.6,4.4c-.3,.4,-.6,.9,-1.1,.9c-.1,0,-.3,0,-.5,-.1c-.7,-.3,-.6,-1.1,-.5,-1.8c0,-.6,.3,-1.1,.4,-1.7c.1,-.5,.4,-1.1,-.4,-1.1c-.1,0,-.2,0,-.3,0c0,0,-.1,0,-.1,0c-.7,0,-.8,-.8,-.7,-1.3c.1,-.9,.3,-1.8,.6,-2.7c.3,-.8,.5,-1.5,-.6,-2c-.8,-.3,-1.1,-1.1,-1,-2c.1,-.2,.2,-.6,0,-.7c-2.8,-1.9,-.3,-4.4,-.6,-6.6c-.1,-.4,.4,-1,.2,-1.3c-1.6,-2.6,-.6,-5.2,.2,-7.6c1.8,-5.4,3.2,-11,4.6,-16.6c1.3,-5,4.7,-9.1,8.1,-13c1.4,-1.6,2.9,-3.2,4.7,-4.5c.3,-.2,.7,-.5,.8,-.8c1.7,-3.6,4.8,-5.8,8.1,-7.8c2.6,-1.6,4.4,-3.9,5.7,-6.6c2.5,-5.6,6.7,-9.5,12.4,-11.7c.5,-.2,1,-.6,1.5,-.6c.2,0,.3,.1,.5,.2c.2,0,.1,.4,-.9,2.3c4.4,-1.9,8.9,-2.3,13,-4C168.4,13.5,175,10.8,182,8.9c.8,-.2,1.6,-.6,2.4,-.9c.5,-.1,.9,-.3,1.4,-.4h.1c.9,0,1.9,.3,2.1,1c.2,1.1,-1.1,.6,-1.6,1c-.2,.1,-.5,.2,-.7,.5c1.9,-.4,3.7,-.5,5.6,-.5c1,0,2,0,2.9,0c.6,0,1.2,.1,1.8,.1c.5,0,1,-.1,1.5,-.1c.5,-.1,1.1,-.1,1.6,-.1c4.2,0,8.2,1.4,12.3,2.4c1.4,.3,2.8,.6,4.2,.6c.4,0,.7,0,1.1,-.1c.6,0,1.2,0,1.8,0c2.4,0,4.7,.4,6.9,1c4.9,1.5,9.8,3.1,14.7,4.8c4.6,1.5,7.9,4.7,11.9,6.7c1.7,.9,2.7,2.5,3.6,4c2.8,5,5.6,10,8.4,14.9c.4,.7,.6,1.6,1.3,2c3.3,1.8,3.9,5.2,5.1,8.3c1.4,3.8,2.7,7.7,4.9,11.1c.3,.5,.6,1,.7,1.5c.2,4.9,2.5,9.2,3.8,13.8c1.4,5.1,2.1,10.2,1.4,15.4c-.5,4,-.9,7.9,-2.3,11.6c-.4,1.1,-.2,1.5,.5,1.5c.2,0,.5,-.1,.8,-.1c.7,-.2,1.5,-.3,2.2,-.3c.8,0,1.6,.1,2.4,.3c2.2,.4,4.1,2.5,4.4,5.2c.4,5.3,.3,10.7,-.6,16c-.4,2.2,-1.6,4.1,-3.4,5.6c-3.1,2.6,-4.4,5.8,-4.6,9.8c-.3,5.7,-1.2,11.2,-4.5,16.1c-1.2,1.7,-1.4,3.9,-1.8,5.9c-1.1,4.2,-3.1,7.5,-7.7,8.7c-2.3,.7,-4.6,1.6,-6.9,2.6c-1.1,.5,-1.7,1.2,-2,2.3c-1,4.6,-1.5,9.2,-2.3,13.9c-.3,2,-.7,3.9,-1.6,5.7c-1.8,3.7,-1.8,7.5,-1.3,11.3c.5,3.7,.4,7.5,.1,11.2c0,1.3,.2,2.4,1.3,3.2c1.2,1,2.3,2.2,3.2,3.6c2.1,3.4,5.4,5.7,8.4,8.3c1,.8,2.4,1,3.7,1.5c7,2.7,14.3,4.6,21.2,7.5c8.9,3.8,18.5,5.9,27.4,9.7c4.7,2,9.7,2.7,14.4,4.5c1,.3,2,.7,2.8,1.5c.3,.3,.5,.8,.4,1.3c-.2,.4,-.6,.6,-1,.6q-.1,0,-.2,0c-.8,-.1,-1.6,-.2,-2.4,-.4c-12.4,-3.3,-24.4,-7.9,-36.4,-12.4c-6.7,-2.6,-13.4,-4.7,-20,-7.3c-.2,-.1,-.4,-.1,-.7,-.1c-.2,0,-.4,0,-.6,.1c1.4,1,2.6,2.1,4.1,2.9c5.5,3,10.5,6.8,15,11.1c3.5,3.3,7.7,5.4,11.6,8.2c1.1,.9,2.3,1.6,3.4,2.5c2.4,1.9,5.1,3.2,7.8,4.5c2.3,1,2.6,2.6,1.2,4.8c-2.4,4,-5.9,7.1,-8.6,10.9c-.3,.3,-.6,.7,-1.1,1.3c3.3,.4,5.4,2.5,8,3.8c3.8,2.1,8.1,2.3,12.3,2.5c3.3,.2,6.7,.4,10,.9c2.5,.3,3,1.5,2.7,4c-1.4,10.2,-6.6,18.8,-11.1,27.7c-.5,1.1,-1.3,1.9,-1.4,3.2c-.1,.5,-.5,1,-.8,1.4c-.4,.6,-.9,.8,-1.4,.8c-.3,0,-.7,-.1,-1.1,-.3c-.9,-.5,-.5,-1.4,-.2,-2.1c2.6,-5.8,5.3,-11.4,8.3,-17c1.7,-3,2.7,-6.4,3.4,-9.8c.2,-1.3,-.1,-1.9,-1.6,-2.1c-4.3,-.7,-8.8,-.7,-13,-2.1c-3.5,-1.2,-6.7,-2.6,-10,-4.2c-3.2,-1.5,-6.7,-2.9,-10.4,-3c-2.3,0,-4.4,-.6,-6.5,-1.6c-4.1,-2,-8.5,-3,-12.8,-4.2c-6.1,-1.8,-12.2,-3.6,-17,-8.2c-1.8,-1.6,-4,-2.8,-6,-5.1c.2,4.2,-.6,7.8,-.1,11.5c.3,3,.3,6.1,0,9.1c-.4,6.2,-.5,12.4,-.3,18.6c.1,6.5,-.3,12.9,-.4,19.3c0,.7,0,1.8,-.8,1.9q-.1,0,-.2,0c-.8,0,-1,-1,-1.2,-1.7c-.1,-.6,-.2,-1.2,-.2,-1.8c-1,-12,-1.5,-23.9,-.4,-35.9c.4,-4.3,.4,-8.7,-.3,-13.1c-.6,-3.4,-.4,-7,.2,-10.6c.7,-3.5,.4,-7,0,-10.6c-.2,-1.8,-.4,-3.6,-.6,-6c-2.5,8.4,-5.3,16.2,-6.1,24.4c-1.1,12.3,-2.8,24.5,-5,36.6c-.4,2.2,-.7,4.5,-1,6.7c-.3,1.6,-1.2,2.5,-2.4,2.5c-.6,0,-1.2,-.2,-1.9,-.7c-.4,-.2,-.9,-.5,-1.1,-.9c-2.2,-3.5,-5.6,-5.9,-8,-9.2c-2.2,-3.1,-5.6,-5.1,-7.9,-8.1c-.3,-.4,-.7,-.6,-1.1,-.6c-.5,0,-1,.3,-1.6,.4c-2.8,1,-5,3.1,-7.4,4.9c-3.1,2.4,-6.7,4.1,-9.1,7.4c-.8,1.1,-1.1,2.1,-.9,3.5c.8,5.5,1.1,11,.2,16.6c-.2,1,-.2,2.7,-1.6,2.7c-1.3,-.1,-1.3,-1.7,-1.5,-2.8c-.8,-4.5,-.7,-9.1,-1.1,-13.6c-.1,-2.1,-1.5,-2.8,-3.1,-2.8c-.2,0,-.4,0,-.5,0c-4.2,0,-8.3,-.4,-12.4,-.5c0,0,-.1,0,-.1,0c-1.9,0,-2.4,.7,-2,2.5c.5,2.8,.3,5.3,-1.3,7.7c-.9,1.4,-.6,3.1,-.8,4.7c-.4,2.3,-.4,4.6,-1.4,7Z" /></clipPath>
<clipPath id="c1_1"><path d="M186,208c4.6,0,9.1,-.7,12,-2.2c-2.7,.7,-5.4,1,-8.1,1c-3.5,0,-7,-.4,-10.6,-.4c-1.4,0,-2.9,0,-4.4,.2c3,.9,7.1,1.4,11.1,1.4Zm-5.5,7.7c.4,0,.9,0,1.3,-.1c.7,-.1,1.4,-.1,2.2,-.2c1.9,0,3.7,-.3,5.6,-.3c.7,0,1.3,0,2,.1c.9,.1,1.8,.2,2.7,.2c3.1,0,5.9,-.9,8.1,-3.7c1.5,-1.9,3.7,-3.3,5.8,-4.5c1.8,-1.1,3.4,-2.6,5.3,-3.6c-.5,-.1,-1,-.1,-1.5,-.1c-3.3,0,-6.4,.6,-9.2,2.5c-4.4,3,-9.6,3.9,-14.8,4.3c-2.8,.2,-5.5,.3,-8.2,.5c-.4,0,-.7,0,-1,0c-1.5,0,-2.8,-.3,-4.2,-1.1C172.8,208.6,170.7,208,168,208c1.6,1.3,3,2.2,4.2,3.1c2.5,2,4.8,4.6,8.3,4.6Zm13.1,3.1c-.4,0,-.8,0,-1.2,0c-4,-.4,-9.1,0,-14.1,-.9c-1.9,-.4,-3.5,-1.2,-4.5,-2.5c-2.3,-2.8,-5.7,-4.2,-8.3,-6.5c-.4,-.4,-.9,-.5,-1.4,-.5c-.4,0,-.8,.1,-1.1,.1c-.4,.1,-.9,.4,-1.2,.4c-.3,0,-.5,-.1,-.7,-.6c-.2,-.8,.4,-1.5,1.1,-1.9c1.3,-.7,2.6,-1.5,4,-1.9c1.4,-.5,2.9,-.8,4.5,-.8c.7,0,1.4,.1,2.2,.2c.4,.1,.8,.1,1.3,.1c.6,0,1.2,0,1.7,0q.1,0,.2,0c3.6,.1,7.3,.2,11,.2c.9,0,1.9,0,2.8,0c4.1,-.1,8.1,-1.2,12.1,-2c4.3,-.8,8.7,-1,13.1,-1.8c.2,-.1,.4,-.1,.7,-.1c1,0,2.1,.4,3.1,.4c.5,0,1,-.1,1.5,-.3c.1,-.1,.2,-.1,.3,-.1c.3,0,.7,.3,.8,.7c.1,.5,-.2,1,-.6,1.2c-4.7,2.5,-8.6,6.1,-13.2,8.7c-2,1.2,-3.9,2.6,-5.4,4.4c-2.1,2.5,-4.8,3.5,-8.7,3.5Z" /></clipPath>
<clipPath id="c2_1"><path d="M160.4,211.7c-.3,0,-.7,-.2,-1,-.3c-3,-1.1,-4.3,-3.7,-5.1,-6.5c-.8,-2.9,-.4,-5.8,.8,-8.8c2.6,-6.6,5.2,-13.2,9.2,-19.1c1.6,-2.2,2.8,-4.7,5.5,-6c.2,-.1,.4,-.3,.7,-.4c.5,-.1,1,-.4,1.5,-.4c.2,0,.4,.1,.6,.2c.7,.6,-.1,1.4,-.3,2c-.5,2,-1.5,3.7,-1.8,5.8c-.1,1.5,.2,2.7,1.5,3.7c3.3,2.6,5.7,5.9,8.7,8.8c1,1,2.1,1.8,3.6,1.8h.1c.3,0,.6,0,.9,0c.6,0,1.2,0,1.8,0c.3,0,.6,0,.9,0c1.2,-.1,2.5,-.4,3.1,-1.5c2.2,-3.5,5.8,-5.1,9.1,-7.1c1.5,-1,3.1,-1.9,4.8,-2.6c2.3,-.9,3,-2.5,2.1,-4.9c-.7,-2.2,-1.8,-4.2,-3.6,-5.7c-.3,-.3,-.7,-.5,-.4,-1c.1,-.1,.3,-.2,.4,-.2c.2,0,.4,.1,.7,.2c6.1,2.2,10.4,6.5,14.2,11.6c2,2.8,4.4,5.4,7.7,7.2c4.2,2.2,4.8,8.1,1.3,11.6c-.7,.7,-1.5,1.5,-2.3,2.1c-.2,.3,-.6,.5,-.9,.5c-.2,0,-.3,-.1,-.5,-.3c-.4,-.5,-.3,-1.1,.1,-1.5c.8,-.9,1.7,-1.7,2.5,-2.6c2.3,-2.4,1.8,-6.7,-1.2,-8.2c-3.8,-1.7,-6.1,-4.9,-8.5,-8c-2.3,-2.8,-4.4,-5.6,-7.4,-7.9c-.3,.7,.2,1.2,.3,1.7c.8,4.1,-.3,5.9,-4,7.8c-4.6,2.3,-9.5,4.3,-12.7,8.8c-.7,1,-1.8,1.7,-3,1.8c-1.3,.2,-2.5,.3,-3.7,.3c-2.7,0,-5.2,-.6,-7.3,-2.9c-3,-3.1,-6.1,-6,-9.2,-8.9c-1.7,-1.5,-1.9,-3.1,-1.1,-5.1c.6,-1.2,1,-2.6,1.3,-4c-1.7,1.7,-3.8,3,-4.9,5.1c-3.1,5.9,-6.1,11.8,-7.5,18.3c-.5,2.1,-1.1,4,-.8,6.1c.3,2.8,1.5,4.9,3.7,6.6c.4,.4,1.1,.8,.7,1.5c-.1,.3,-.4,.4,-.6,.4Z" /></clipPath>
<clipPath id="c3_1"><path d="M146.3,138.6c.1,0,.2,0,.4,-.1c-.2,-.5,-.3,-1,-.4,-1.7c-.7,.4,-1.3,.7,-1.2,1.2c.1,.3,.8,.4,1.2,.6Zm9,2v0c3.2,-.6,6.1,-1.7,9.2,-1.9c-1.9,-.8,-3.9,-1.6,-5.8,-2.3c-.2,-.1,-.6,-.3,-.8,-.3c-.2,0,-.4,.1,-.5,.5c-.4,1.4,-1.3,2.5,-2.1,4Zm-4.9,-.8c.7,0,1.5,-.2,2.1,-.2c2,-.2,2.6,-1.9,3,-3.6c.2,-1,-.3,-1.3,-1.1,-1.5c-.2,-.1,-.3,-.1,-.4,-.1c-.7,0,-.5,.7,-.6,1.3c0,1,-.4,2.1,-1.5,2.3c-.2,0,-.3,0,-.5,0c-1,0,-1.8,-.6,-2.4,-1.4c-.4,-.4,-.1,-1.1,-1.1,-1.5c-.1,1.1,-.2,2.1,.2,3c.5,1.4,1.4,1.7,2.3,1.7Zm3.5,2.6c-2,0,-3.9,-.4,-5.9,-1c-1.6,-.5,-2.9,-1.9,-4.6,-1.9c-.3,0,-.5,0,-.7,.1q-.1,0,-.2,0c-.2,0,-.4,0,-.6,0c-.2,0,-.4,0,-.5,.3c-.9,1.5,-2.1,1.9,-3.4,1.9c-.7,0,-1.5,-.1,-2.1,-.2c-3.1,-.5,-6.2,-1.2,-9.1,-2.3c-.5,-.2,-1,-.5,-1.4,-.8c-.4,-.2,-.7,-.6,-.5,-1c.1,-.2,.3,-.3,.5,-.3c.2,0,.4,.1,.6,.1c1.2,.5,2.5,.9,3.7,1.5c2.6,1.4,5.5,1.5,8.3,1.5q.1,0,.1,0c.8,0,1.8,-.1,1.5,-1.3c-.1,-.4,-.2,-.6,-.4,-.6c-.4,0,-.8,.4,-1.1,.4c-.6,0,-1.3,.4,-1.8,.4c-.3,0,-.5,-.1,-.6,-.5c-.4,-1.1,1.2,-1.2,1.8,-1.2c2.8,-.2,3.8,-2.8,5.6,-4.2c3.1,-2.5,6.4,-3.7,10,-3.7c1.4,0,2.9,.2,4.3,.6c5,1.2,9.3,4.2,14.4,5c.4,.1,.8,.3,.8,.8c-.1,.5,-.5,.8,-1,.8c-.3,.1,-.5,.1,-.8,.1c-.9,0,-1.7,-.2,-2.5,-.5c-3.6,-1.3,-7.1,-2.9,-10.7,-4.2c-1.6,-.5,-3.2,-.8,-4.7,-.8c-2.7,0,-5.3,.8,-7.7,2.3c-1.8,1,-2.8,3,-4.1,5c2.8,-1.6,4.3,-4.3,7.2,-5.5c1.5,-.6,2.9,-.9,4.4,-.9c1.4,0,2.8,.3,4.1,1c4.9,2.5,9.9,4.1,15.3,4.1c.4,0,.8,0,1.3,0c.2,0,.5,-.1,.8,-.1c.4,0,.8,.2,.9,.7c.1,.8,-1,.6,-1.5,1c-4.6,3.4,-10.2,1,-15.1,2.7c-1.6,.5,-3.1,.7,-4.6,.7Z" /></clipPath>
<clipPath id="c4_1"><path d="M191.5,254.2q-.1,0,-.2,0c-2.7,0,-5.3,-.4,-8,-.4c-.2,0,-.4,.1,-.6,.1c-.2,0,-.3,0,-.4,0c-5.2,0,-9,-3.2,-12.9,-6c-1.3,-1,-2.3,-2.2,-3.2,-3.6c-2.4,-3.7,-6.3,-6.1,-8.8,-9.8C154,229.8,149.8,225.7,147,220.6c-1.6,-2.9,-1.8,-6.2,-2.8,-9.2c-1.9,-5.6,-2.8,-11.6,-5.8,-16.9c-.1,-.3,-.2,-.7,-.2,-1.1c-.1,-.8,-.1,-1.8,.9,-2c.1,0,.2,0,.4,0c.8,0,1.3,.7,1.5,1.4c.6,3.2,1.8,6.3,2.5,9.5c1.1,5.5,2.5,11,4.3,16.4c1.3,4,4.4,6.6,6.5,9.9c2.9,4.6,6.7,8.3,10.8,11.7c1.4,1.2,2.7,2.7,3.4,4.6c.5,1.3,2,1.9,3.3,2.6c1.9,1,3.9,1.9,5.9,2.9c.5,.3,1.1,.6,1.7,.6c.2,0,.4,0,.6,0c3.9,0,7.7,.5,11.6,.5c1.6,0,3.2,-.1,4.8,-.3c6.1,-1,10.8,-4,14.7,-8.7c2.5,-2.8,5.3,-5.3,8.5,-7.6c.2,1.1,-.3,1.7,-.7,2.4c-3.4,4.5,-7.1,8.7,-11.6,12.2c-4.6,3.6,-10.1,4.7,-15.8,4.7Z" /></clipPath>
<clipPath id="c5_1"><path d="M214.1,248.5c-.2,0,-.3,-.1,-.5,-.3c-.3,-.3,.1,-.7,.3,-1c4.6,-4.8,6.8,-11.2,10.8,-16.4c4.1,-5.3,7.6,-11,9.4,-17.6c.8,-3.2,1.7,-6.3,1.8,-9.6c0,-1.8,.9,-3.4,1.4,-5c.8,-3.1,1.9,-6,2.5,-9.1c.1,-.5,.3,-1.2,.9,-1.2c.1,0,.2,0,.2,.1c.5,0,.6,.4,.6,.8c-.4,2,-.8,3.9,-1.5,5.7c-.6,1.4,-.9,2.8,-.9,4.3c.2,4.1,-1.1,7.9,-2.2,11.8c-1.5,5.1,-3.1,10.4,-6,15c-3,4.6,-5.9,9.4,-8.6,14.2c-1.9,3.2,-4.9,5.3,-7.5,7.8c-.2,.2,-.4,.5,-.7,.5Z" /></clipPath>
<clipPath id="c6_1"><path d="M207.7,137.3c.1,-.7,.1,-1.2,-.4,-1.5c-.1,0,-.4,.2,-.4,.3c-.3,.6,.1,.9,.8,1.2Zm4.7,.2c.8,0,1.7,-.3,2.3,-.9c1.3,-1.2,1.1,-2.9,.5,-4.5c-.3,1.5,-.2,3.1,-2.2,3.6c-.3,.1,-.5,.1,-.7,.1c-1.3,0,-1.8,-1.1,-2.4,-2.6c-.5,1.6,-1.9,3.1,.3,3.8c.6,.3,1.4,.5,2.2,.5Zm4.2,-.3c1.5,-.2,2.7,-.6,3.8,-1.1c1.9,-.9,3.8,-1.8,5.8,-2.2c-2.4,-.7,-4.9,-1.4,-7.3,-2c-.3,-.1,-.5,-.2,-.8,-.2c-.4,0,-.7,.3,-.7,1c0,1.5,-.4,3,-.8,4.5Zm-4.7,2.8q-.1,0,-.2,0c-1.6,0,-3.1,-.7,-4.6,-1c-.7,-.1,-1.4,-.3,-2,-.3c-.5,0,-1,.1,-1.4,.4c-.2,.1,-.4,.2,-.5,.2c-.3,0,-.6,-.1,-.8,-.4c-.5,-.5,-.2,-1,0,-1.4c2.9,-5.2,7.4,-8,12.5,-8c2.4,0,4.9,.6,7.5,1.9c1.4,.6,3.2,.7,3.8,2.5c.2,-.2,.4,-.3,.6,-.3c.4,0,.6,.3,.8,.7c.2,.5,-.2,.9,-.7,1c-4.9,2,-9.5,4.7,-15,4.7Z" /></clipPath>
<clipPath id="c7_1"><path d="M174.6,164.9c-.1,0,-.2,0,-.3,-.1c-.6,-.2,-.2,-.9,-.1,-1.4c1.1,-8.2,2.9,-16.3,2.8,-24.7c-.1,-4.1,-.9,-7.7,-3.1,-11.2c-.9,-1.4,-1.3,-3,-2,-4.5c-.1,-.2,-.2,-.7,-.5,-.7c0,0,-.1,0,-.2,.1c-.5,.3,-.9,.4,-1.2,.4c-.8,0,-1,-1.1,-1.3,-1.8c-.5,-1,-1.4,-1.8,-1.6,-3c-.1,-.3,-.2,-.7,.1,-.9c.1,-.1,.3,-.1,.4,-.1c.2,0,.5,.2,.7,.4c.5,.7,.8,1.7,1.6,2.2c.4,.2,.6,.8,1,.8c.2,0,.4,-.1,.7,-.3q.1,-.1,.2,-.1c.4,0,.9,.8,1.1,1.3c1.1,2.3,2,4.7,3.3,6.8c2.7,4.5,2.1,9.5,2.5,12.4c.3,6.2,-.7,10.3,-1.4,14.5c-.4,2.5,-.3,5.1,-1.2,7.5c-.2,.4,-.3,.9,-.5,1.3c-.2,.5,-.5,1.1,-1,1.1Z" /></clipPath>
<clipPath id="c8_1"><path d="M240.7,123.6c-.1,0,-.3,-.1,-.4,-.1c-2,-1.1,-4.6,-.6,-6.3,-1.6c-1.7,-1.1,-3.5,-1.2,-5.2,-1.7c-.4,-.1,-.7,-.2,-1.1,-.2c-.5,0,-1.1,.1,-1.6,.2c-.3,.1,-.5,.1,-.8,.1c-.5,0,-1,-.1,-1.1,-.7c-.3,-.8,.9,-.5,1.3,-1.2c-1.6,0,-2.8,.7,-4.1,1c-.5,.2,-.9,.4,-1.3,.4c-.4,0,-.8,-.2,-1.2,-.7c-.2,-.2,-.3,-.3,-.5,-.3c-.5,0,-1.1,.5,-1.6,.7c-.5,.1,-1,.4,-1.4,.4c-.2,0,-.5,-.1,-.6,-.4c-.6,-1,.5,-1.4,1.1,-1.7c2.5,-1.3,5.1,-2.4,7.6,-3.6c.4,-.1,.8,-.4,1.2,-.4c.3,0,.5,.2,.7,.6c.4,.9,-.6,1.1,-1.1,1.4c-.1,.1,-.3,.2,-.5,.4c.2,.1,.5,.1,.7,.1c1.6,0,2.8,-.9,4.2,-1c.5,0,1,-.3,1.5,-.3c.3,0,.5,.1,.7,.5c.3,.9,-1,.8,-1.5,1.3c-.2,.3,-.7,.3,-.8,.9c.6,0,1.2,-.1,1.7,-.1q.1,0,.1,0c0,0,.1,0,.1,0c.7,0,1.5,-.2,2.2,-.2c1,0,2,.3,2.8,1.4c.8,1.1,2.5,1.4,4,1.8c.7,.2,1.3,.6,1.8,1.2c.3,.4,.5,.8,.2,1.3c-.2,.3,-.5,.5,-.8,.5Z" /></clipPath>
<clipPath id="c9_1"><path d="M235.9,134.3c-.1,0,-.2,0,-.2,0c-1.5,-.1,-3,-.2,-4.3,-.7c-2.2,-.7,-4.4,-1.4,-6.3,-2.6c-2.7,-1.7,-5.3,-2.4,-8,-2.4c-2.7,0,-5.5,.7,-8.2,1.8c-.6,.2,-1.1,.7,-1.8,.7c-.1,0,-.2,-.1,-.3,-.1c-.1,-1.1,.6,-1.6,1.4,-1.9c1.6,-.7,3.2,-1.4,4.8,-1.9c1.6,-.5,3.2,-.7,4.7,-.7c4.1,0,7.9,1.6,11.4,4c1.4,.9,2.6,1.6,4.3,1.6h.2c.7,0,1.5,.2,2.3,.3c.5,.1,1.1,.4,1.1,1c0,.6,-.6,.9,-1.1,.9Z" /></clipPath>
<clipPath id="c10_1"><path d="M180.7,231.5c-.6,0,-1.1,-.2,-1.2,-.8c-.2,-.7,.4,-.9,.9,-1.1c2,-1,4.1,-1.2,6.2,-1.5c3.2,-.3,6.4,-.8,9.6,-1.3c.5,-.1,1,-.1,1.5,-.1c1.8,0,3.5,.4,5.2,.7c.6,.1,1.3,.3,1.3,1.1c-.1,.7,-.7,.9,-1.3,.9c-.6,0,-1.2,0,-1.8,0c-.8,0,-1.6,0,-2.5,0c-5.6,.3,-11.2,.4,-16.7,1.9c-.3,.1,-.6,.1,-1,.2q-.1,0,-.2,0Z" /></clipPath>
<clipPath id="c11_1"><path d="M152.8,151c-1.7,0,-3.1,-.5,-4.5,-1.6c-2,-1.4,-4.3,-2.4,-6.2,-4c-.5,-.4,-1.1,-.8,-.7,-1.5c.2,-.2,.4,-.3,.6,-.3c.3,0,.6,.2,1,.4c4,1.4,7.6,4,12.1,4.5c.7,0,1.3,.1,2,.1c1.2,0,2.4,-.2,3.7,-.7c.5,-.2,1,-.4,1.5,-.5c.2,-.1,.4,-.1,.6,-.1c.2,0,.5,.1,.6,.4c.2,.6,-.3,.8,-.7,1c-3.1,1.4,-6.4,1.7,-9.6,2.3c-.2,0,-.3,0,-.4,0Z" /></clipPath>
<clipPath id="c12_1"><path d="M217.6,148.8c-3.5,0,-6.7,-1.3,-9.6,-3.5c-.8,-.7,-2.1,-.4,-3,-1.1c-.3,-.3,-.9,-.5,-.7,-1c.2,-.4,.4,-.5,.7,-.5c.2,0,.3,0,.5,.1c1.1,.3,2.2,.6,3.2,1.2c3.2,2.1,6.7,2.7,10.2,2.7c1.5,0,3,-.1,4.5,-.2c1.3,-.2,2.2,-1.2,3.4,-1.7c.3,-.1,.7,-.4,1,-.4c.2,0,.3,.1,.5,.3c.5,.6,-.1,1.1,-.5,1.5c-1.5,1.7,-3.5,2,-5.6,2.4c-.3,0,-.6,0,-.9,0c-.5,0,-1,0,-1.5,0c-.7,.1,-1.5,.2,-2.2,.2Z" /></clipPath>
<clipPath id="c13_1"><path d="M252.9,104.3c-.4,0,-.8,-.3,-1,-.6c-.6,-.7,-1.3,-1.3,-1.6,-2.1c-1,-2.1,-3.2,-2.7,-4.7,-4.2c-.2,-.4,-.5,-.8,-.7,-1.2c-.7,-1.5,-1.4,-3,-1.9,-4.6c-.4,-1,-.8,-2.4,.2,-2.9c.2,-.1,.4,-.2,.6,-.2c.8,0,1.3,1.1,1.7,1.8c2.1,4.5,4.3,8.8,7.5,12.5c.3,.3,.9,.9,.3,1.3c-.2,.1,-.3,.2,-.4,.2Z" /></clipPath>
<clipPath id="c14_1"><path d="M145.7,121.2c-.4,0,-.7,-.3,-1,-.5c-1.1,-1,-1.8,-2.5,-3.9,-2.7c.4,.3,.6,.4,.7,.5c.5,.3,1.3,.6,1,1.3c-.2,.4,-.4,.5,-.7,.5c-.4,0,-.7,-.1,-1,-.3c-1.4,-.5,-2.8,-1.4,-4.3,-1.4c-.4,0,-.8,.1,-1.2,.2c-.1,0,-.2,0,-.2,0c-.4,0,-.4,-.5,-.1,-.8c.4,-.6,1.1,-.9,1.8,-1c1.6,-.1,3.1,-.2,4.6,-.3c0,0,.1,0,.1,0c.2,0,.4,0,.5,0c.1,0,.2,0,.2,0c.8,-.9,1.5,-1.2,2.2,-1.2c1.6,0,3,1.8,4.6,2.1c.4,.1,1,.7,.7,1.3c-.1,.3,-.4,.4,-.7,.4c-.3,0,-.6,-.1,-.9,-.2c-1.4,-.5,-2.8,-1.2,-4.2,-1.8c-.1,.2,-.2,.4,-.4,.5c.8,.6,1.5,1.2,2.2,1.8c.4,.4,1,.8,.4,1.3c-.1,.2,-.3,.3,-.4,.3Z" /></clipPath>
<clipPath id="c15_1"><path d="M163.9,121.3c-.2,0,-.5,-.1,-.6,-.3c-1.2,-2.3,-4.1,-1.7,-5.7,-3.4c-.8,-.8,-2,-1.2,-2.9,-1.8c-.2,-.1,-.3,-.2,-.4,-.3c-.2,-.4,-.8,-.8,-.4,-1.4c.2,-.2,.5,-.3,.8,-.3c.3,0,.6,.1,.9,.2c1.1,.5,2,1.5,3.5,1.8c-.4,-.5,-.8,-.8,-1,-1.2c-.4,-.4,-1.1,-.9,-.6,-1.5c.2,-.2,.4,-.2,.6,-.2c.4,0,.8,.2,1.1,.4c2.6,1.5,4,4.1,5.4,6.6c.2,.4,.2,.9,-.2,1.3c-.2,.1,-.3,.1,-.5,.1Z" /></clipPath>
<clipPath id="c16_1"><path d="M204.3,121.2q-.1,0,-.2,0c-.7,-.2,-.5,-1,-.4,-1.6c0,-.3,.1,-.6,.1,-1c.7,-1,1.4,-1.9,2.6,-2.4c2,-.7,3.9,-1.3,5.8,-2.3c.4,-.2,.8,-.4,1.1,-.4c.6,0,.9,.4,.5,1.6c-.4,.3,-.8,.5,-1.1,.8c-1.7,.5,-2.7,1.9,-3.8,3.2c-.5,.5,-.8,1.5,-1.5,1.5c-.2,0,-.3,-.1,-.4,-.1c-1.1,-.6,.2,-1.5,.1,-2.6c-.8,.9,-1.5,1.5,-2.1,2.2c-.2,.4,-.2,1.1,-.7,1.1Z" /></clipPath>
<clipPath id="c17_1"><path d="M240.7,138.7c-2.4,0,-4.8,-.7,-7.2,-1.4c-.8,-.2,-1.9,-.7,-1.5,-1.8c.3,-.5,.6,-.7,1,-.7c.5,0,1,.2,1.5,.5c2,1.2,4.3,1.3,6.4,2.1c.4,.1,.7,.2,1.1,.2c1.4,0,2.7,-.9,3.9,-1.7c1.7,-1,2.9,-2.5,4.4,-3.6c-1.3,3.4,-3.9,5.5,-7.4,6.2c-.7,.1,-1.5,.2,-2.2,.2Z" /></clipPath>
<clipPath id="c18_1"><path d="M199.2,137.3c0,0,-.1,0,-.3,-.1c-.5,-.2,-.4,-.8,-.3,-1.2c.1,-.6,.2,-1.2,.4,-1.7c2.1,-4.5,5.8,-7.1,10.4,-8.4c.1,0,.3,-.1,.4,-.1c.3,0,.6,.1,.9,.4c-.9,1.1,-2.1,1.5,-3.2,1.9c-2.2,.8,-3.6,2.3,-4.7,4.1c-1,1.5,-1.9,2.9,-2.9,4.4c-.2,.3,-.3,.7,-.7,.7Z" /></clipPath>
<clipPath id="c19_1"><path d="M197.5,154.8c-.5,0,-.8,-.7,-1,-1.2c-1.1,-4.6,-2.5,-9.3,-1.4,-14.2c.1,-.5,.3,-1,.5,-1.5c.2,-.3,.3,-.8,.7,-.8c.1,0,.2,0,.3,.1c.5,.2,.3,.7,.3,1.2c-1.8,5,.3,9.8,1.2,14.7c.1,.6,.4,1.4,-.2,1.7c-.2,0,-.3,0,-.4,0Z" /></clipPath>
<clipPath id="c20_1"><path d="M198.8,123.3c-.1,0,-.2,0,-.3,0c-.8,-.3,-.7,-1.2,-.4,-1.9c.4,-1.2,1.1,-2.3,1.8,-3.3c.2,-.3,.6,-.6,.8,-.6c.1,0,.2,0,.2,.1c.4,.4,.8,.6,1,.6c.6,0,.7,-1.1,1.1,-1.5c.7,-.5,1.1,-1.2,1.7,-1.7c.5,-.4,1,-1,1.5,-1c.2,0,.4,.1,.6,.3c.7,.5,-.3,1.2,-.4,1.9c-1.2,.5,-1.9,1.4,-2.6,2.4c-1.3,1,-2,2.4,-2.2,4c-1,-.2,-.5,-1.2,-1.1,-1.5c-.5,.2,-.5,.6,-.7,.9c-.3,.5,-.4,1.3,-1,1.3Z" /></clipPath>
<clipPath id="c21_1"><path d="M242.1,153c-.2,0,-.3,0,-.5,-.1c-2.2,-.1,-4.1,-1.1,-5.7,-2.6c-1.8,-1.8,-3.2,-4.1,-5.8,-5.1c-.2,-.1,-.5,-.3,-.3,-.6c.1,-.1,.3,-.4,.5,-.4q.1,0,.1,0c1.2,.2,2.5,.3,3.5,1.3c1.2,1.2,2.3,2.4,3.4,3.6c1.2,1.3,2.7,1.9,4.4,2.2c.7,0,1.3,.3,1.2,1.1c-.1,.5,-.4,.6,-.8,.6Z" /></clipPath>
<clipPath id="c22_1"><path d="M223.3,219.1c-.8,0,-.8,-.9,-.9,-1.5c-.5,-2.9,-1.7,-5.8,-1.4,-8.8c0,-.5,0,-1,.1,-1.4c.1,-.7,.3,-1.3,1,-1.3q.1,0,.2,0c.8,.1,.8,.8,.8,1.4c0,.5,0,1.1,0,1.6c-.2,2.8,.9,5.5,.9,8.4c0,.6,.4,1.5,-.6,1.6c0,0,-.1,0,-.1,0Z" /></clipPath>
<clipPath id="c23_1"><path d="M132.3,145c-2.1,0,-4.3,-.6,-6.5,-1.5c-.5,-.2,-1.3,-.3,-1.1,-1.1c.1,-.4,.5,-.5,.8,-.5c.2,0,.4,0,.6,.1c2.9,1.1,5.9,1.3,8.9,1.3c.6,0,1.3,0,1.9,0c0,0,.1,0,.1,0c.6,0,1,.2,1,.9c0,.5,-.5,.7,-1,.7c-.5,0,-.9,0,-1.4,0c-.7,0,-1.6,0,-2.5,0c-.3,0,-.5,.1,-.8,.1Z" /></clipPath>
<clipPath id="c24_1"><path d="M247.3,147.1c-.2,0,-.4,0,-.5,-.1c-2.3,-.4,-4.5,-1,-6.5,-2.1c-1.3,-.7,-2.8,-.6,-4,-1.5c-.4,-.2,-.9,-.5,-.7,-1.1c.3,0,.5,0,.8,0c2.3,0,4.3,.9,6.4,1.8c1.4,.5,2.9,.8,4.4,1.3c.4,.2,1.2,.3,1,1c-.1,.5,-.5,.7,-.9,.7Z" /></clipPath>
<clipPath id="c25_1"><path d="M211.4,119.4c-.2,0,-.4,0,-.5,-.2c-.5,-.6,0,-1.1,.3,-1.5c.4,-.6,1,-1.2,1.5,-1.8c.3,-.3,.7,-.5,1.1,-.8c1.4,-.1,2.2,-1.3,3.5,-1.8c.4,-.1,.9,-.4,1.3,-.4c.3,0,.5,.1,.7,.4c.5,.8,-.5,1.2,-1.1,1.6c-1.9,1.4,-4,2.7,-6,4.1c-.2,.2,-.5,.4,-.8,.4Z" /></clipPath>
<clipPath id="c26_1"><path d="M132,155.1v0c.7,-.9,1.7,-1.2,2.8,-1.3c3.7,-.3,7.1,-1.8,10.3,-3.6c.3,-.1,.7,-.5,1,-.5c.1,0,.2,0,.4,.2c.5,.8,-.2,1.3,-.8,1.6c-3,1.5,-5.9,3.1,-9.4,3.1c-1.5,0,-2.9,.5,-4.3,.5Z" /></clipPath>
<clipPath id="c27_1"><path d="M174.9,176.6c0,0,-.1,0,-.2,0c-.5,-.2,-.7,-.6,-.7,-1.1c0,-.8,.1,-1.7,.2,-2.6c.1,-.5,.3,-1.1,-.3,-1.6c-.5,-.3,-.9,-.7,-.6,-1.3c.3,-.4,.6,-.6,1,-.6c.1,0,.2,0,.2,0c.7,.1,1.4,.3,1.5,1.1c.1,.8,.1,1.6,.2,2.1c-.1,1.3,0,2.3,-.4,3.3c-.2,.3,-.4,.7,-.9,.7Z" /></clipPath>
<clipPath id="c28_1"><path d="M167.1,121.4c-.3,0,-.5,-.1,-.6,-.2c-1.6,-1.8,-2.7,-3.9,-3.8,-6c-.2,-.4,0,-.9,.6,-.9c.1,0,.3,0,.4,.1c.7,.3,3.9,5.3,3.9,6.2c-.1,.3,0,.7,-.4,.8q-.1,0,-.1,0Z" /></clipPath>
<clipPath id="c29_1"><path d="M107.2,114.2c-.3,0,-.5,-.2,-.7,-.5c-.3,-.7,-.2,-1.4,0,-2.1c.4,-1.4,.8,-2.8,1.2,-4.2c.3,-.2,.6,-.2,.8,-.2c.7,0,.8,.7,.8,1.5c.1,1.9,-1.2,3.4,-1.8,5.2c0,.2,-.2,.3,-.3,.3Z" /></clipPath>
<clipPath id="c30_1"><path d="M157,120c-.3,0,-.6,-.1,-.9,-.3c-.5,-.4,-1,-.8,-1.5,-1.2c-.7,-.6,-1.3,-1.1,-2,-1.6c-.3,-.5,-1.1,-.9,-.5,-1.5c.2,-.3,.5,-.4,.7,-.4c.5,0,1,.4,1.5,.5c.1,.1,.2,.2,.3,.3c.9,.9,1.7,1.8,2.5,2.6c.4,.4,1.1,.7,.5,1.3c-.2,.2,-.4,.3,-.6,.3Z" /></clipPath>
<clipPath id="c31_1"><path d="M135.5,150.8c-.5,0,-.9,-.2,-1,-.8c-.1,-.5,.2,-.9,.7,-1.1c2,-.6,4.1,-1.2,6.2,-1.7c.1,.1,.1,.3,.2,.4c-1.8,1.3,-3.5,2.8,-5.9,3.2q-.1,0,-.2,0Z" /></clipPath>
<clipPath id="c32_1"><path d="M154.2,119.8c-.1,0,-.4,-.1,-.7,-.3c-1.8,-1.3,-3.8,-2.3,-5.2,-4c-.3,-.3,-.9,-.7,-.4,-1.1c.1,-.2,.2,-.2,.4,-.2c.3,0,.6,.3,.8,.5c1.2,.7,2,2,3.5,2.2c.7,.5,1.3,1,2,1.6c0,.6,.1,1.3,-.4,1.3Z" /></clipPath>
<clipPath id="c33_1"><path d="M188.6,201.2c-1.2,0,-.9,-1.4,-1,-2.2c.2,-1,-.3,-2.6,1.3,-2.7c0,0,.1,0,.1,0c1.3,0,1.4,1.4,1.4,2.4c0,1.1,-.4,2.4,-1.7,2.5q-.1,0,-.1,0Z" /></clipPath>
<clipPath id="c34_1"><path d="M134,122.3c-.2,0,-.5,-.1,-.6,-.2c0,-.3,0,-.7,.2,-.9c.8,-1.2,2.1,-1.3,3.4,-1.3c.4,0,.8,0,1.2,0c.4,.1,.9,.3,.9,.9c0,.6,-.5,.7,-.9,.8c-1.4,.1,-2.8,-.1,-4.1,.7c0,0,-.1,0,-.1,0Z" /></clipPath>

</defs>
<g clip-path="url(#c_1)" fill="#ce0000">
<g clip-path="url(#c0_1)">
<path d="M3.1,0H348.2V352.3H3.1Z" class="g0_1" />
</g>
<g clip-path="url(#c1_1)">
<path d="M153.4,192.7h75.8v33.7H153.4Z" class="g0_1" />
</g>
<g clip-path="url(#c2_1)">
<path d="M146.3,161.9h91v57.4h-91Z" class="g0_1" />
</g>
<g clip-path="url(#c3_1)">
<path d="M117.2,121.9h65.5v28.2H117.2Z" class="g0_1" />
</g>
<g clip-path="url(#c4_1)">
<path d="M130.5,183.7h96.8v78.2H130.5Z" class="g0_1" />
</g>
<g clip-path="url(#c5_1)">
<path d="M205.9,180.7h43.2v75.4H205.9Z" class="g0_1" />
</g>
<g clip-path="url(#c6_1)">
<path d="M194.5,121.9h40.8v25.8H194.5Z" class="g0_1" />
</g>
<g clip-path="url(#c7_1)">
<path d="M159.4,109.3h27v63.2h-27Z" class="g0_1" />
</g>
<g clip-path="url(#c8_1)">
<path d="M207,106.2h42.3v25H207Z" class="g0_1" />
</g>
<g clip-path="url(#c9_1)">
<path d="M199.1,118.9h45.5V142H199.1Z" class="g0_1" />
</g>
<g clip-path="url(#c10_1)">
<path d="M171.8,219.1h40v20h-40Z" class="g0_1" />
</g>
<g clip-path="url(#c11_1)">
<path d="M133.6,136h37.6v22.6H133.6Z" class="g0_1" />
</g>
<g clip-path="url(#c12_1)">
<path d="M196.6,135.1h39.5v21.3H196.6Z" class="g0_1" />
</g>
<g clip-path="url(#c13_1)">
<path d="M234.9,80.9h26.3v31H234.9Z" class="g0_1" />
</g>
<g clip-path="url(#c14_1)">
<path d="M127.1,107.9h30.3v20.9H127.1Z" class="g0_1" />
</g>
<g clip-path="url(#c15_1)">
<path d="M146.1,105.2h26.3V129H146.1Z" class="g0_1" />
</g>
<g clip-path="url(#c16_1)">
<path d="M195.9,105.9h25.7v22.9H195.9Z" class="g0_1" />
</g>
<g clip-path="url(#c17_1)">
<path d="M224.3,124.6h33.6v21.7H224.3Z" class="g0_1" />
</g>
<g clip-path="url(#c18_1)">
<path d="M190.9,118.2h27.5V145H190.9Z" class="g0_1" />
</g>
<g clip-path="url(#c19_1)">
<path d="M187.1,129.5h18.8v33H187.1Z" class="g0_1" />
</g>
<g clip-path="url(#c20_1)">
<path d="M190.2,106.4h24.5V131H190.2Z" class="g0_1" />
</g>
<g clip-path="url(#c21_1)">
<path d="M222.1,136.6h28.5v24H222.1Z" class="g0_1" />
</g>
<g clip-path="url(#c22_1)">
<path d="M213.3,198.5h18.4v28.2H213.3Z" class="g0_1" />
</g>
<g clip-path="url(#c23_1)">
<path d="M117,134.2h28.6v18.4H117Z" class="g0_1" />
</g>
<g clip-path="url(#c24_1)">
<path d="M227.9,134.7h28v20h-28Z" class="g0_1" />
</g>
<g clip-path="url(#c25_1)">
<path d="M203,105.3h24.1v21.8H203Z" class="g0_1" />
</g>
<g clip-path="url(#c26_1)">
<path d="M124.3,142h30v20.8h-30Z" class="g0_1" />
</g>
<g clip-path="url(#c27_1)">
<path d="M165.6,161.8h18.2v22.4H165.6Z" class="g0_1" />
</g>
<g clip-path="url(#c28_1)">
<path d="M155,106.6h20.2V129H155Z" class="g0_1" />
</g>
<g clip-path="url(#c29_1)">
<path d="M98.7,99.5H117v22.4H98.7Z" class="g0_1" />
</g>
<g clip-path="url(#c30_1)">
<path d="M144.2,107.4h21.3v20.3H144.2Z" class="g0_1" />
</g>
<g clip-path="url(#c31_1)">
<path d="M126.8,139.5h22.5v18.9H126.8Z" class="g0_1" />
</g>
<g clip-path="url(#c32_1)">
<path d="M140.1,106.6h22.2v20.8H140.1Z" class="g0_1" />
</g>
<g clip-path="url(#c33_1)">
<path d="M179.9,188.7H198v20.1H179.9Z" class="g0_1" />
</g>
<g clip-path="url(#c34_1)">
<path d="M125.8,112.2h20.9V130H125.8Z" class="g0_1" />
</g>

</g>
</svg>
