<?xml version="1.0" encoding="UTF-8" standalone="no"?>
<!DOCTYPE svg PUBLIC "-//W3C//DTD SVG 1.1//EN"
"http://www.w3.org/Graphics/SVG/1.1/DTD/svg11.dtd">


<!-- Page 1 -->
<svg x="0" y="0" width="351" height="351" viewBox="0 0 351 351" version="1.1" xmlns="http://www.w3.org/2000/svg" xmlns:xlink="http://www.w3.org/1999/xlink"
style="display: block;margin-left: auto;margin-right: auto;">
<defs>
<clipPath id="c_1"><path d="M0,0H351V351H0Z" /></clipPath>
<clipPath id="c0_1"><path d="M173.8,320.2c.1,0,.3,-.1,.5,-.1c1.4,-.3,2.9,-.4,4.3,-.4c1,0,2.1,.1,3.1,.2c.7,0,1.3,0,2,0c4.3,0,8.4,-.9,12.4,-2.7c2.9,-1.3,5.9,-2.5,9.1,-3.8c-4.2,-3.7,-7.6,-7.5,-11,-11.5c-1.9,-2.2,-3.9,-4.6,-6.6,-6.1c-3.2,-1.7,-6.5,-2.8,-10,-3.4c-.4,0,-.8,-.1,-1.2,-.1c-1.1,0,-2.1,.4,-3.2,1c-5.7,3.1,-9.3,8.6,-14.4,12.4c-.5,.3,-.6,.8,-.1,1.3c1.5,1.8,2.7,3.8,4.4,5.5c2.4,2.4,5.3,4.2,7.9,6.4c.8,.7,1.8,1.3,2.8,1.3Zm37.3,-6.4c.4,0,.7,-.2,1,-.5c5.8,-4.5,11,-9.6,15.3,-15.5c2.6,-3.4,5.1,-6.9,8,-10.1c1.1,-1.3,1.9,-2.9,2.5,-4.7c1,-3.5,.4,-7,.8,-10.4c.7,-6.4,.8,-12.9,1.1,-19.3c.3,-5.1,-.4,-10.3,-1,-15.4c-.3,-2.5,.2,-5.2,-1.2,-7.9c-1.4,6.1,-3.4,11.7,-6.6,16.9c-1.3,2,-2.8,4,-3.7,6.2c-2.9,7.5,-8.5,12.3,-15.5,15.5c-5.5,2.6,-9.5,7.1,-14.5,10.3c0,.1,-.1,.1,-.1,.2c-2.9,3.9,-7.2,5.7,-11.5,7.6c-2.6,1,-5.6,.7,-8.2,2.9c.9,.2,1.5,.3,2.1,.4c.6,.1,1.3,.3,1.9,.4c7.8,1.3,12.4,7,17,12.3c3.6,4.2,7.5,7.8,12,10.9c.2,.2,.4,.2,.6,.2ZM142,318.7c2.4,-3.2,5.6,-5.2,8.5,-7.6c2.3,-2,3.4,-4.9,5.8,-6.9c2.3,-2,4.6,-4,6.8,-6.2c2.7,-2.8,5.5,-5.5,8.9,-7.5c1.5,-.8,2.9,-2,4.8,-3.5c-3.5,-.4,-5.5,-2.7,-8,-3.9c-5.6,-2.7,-8.5,-7.5,-11.6,-12.1c-3.2,-4.6,-6.3,-9.2,-9.3,-13.9c-1.9,-3.1,-4.1,-5.9,-5.6,-9.2c-1.4,-3,-3.5,-5.5,-5.9,-7.6c-2.6,-2.3,-4.4,-5,-5.6,-8.2c-.6,-1.7,-1.7,-3.1,-2.6,-4.7c-.2,.2,-.3,.3,-.4,.4c-.1,.3,-.2,.6,-.2,1c-.4,5.3,-1.2,10.5,-.6,15.9c.7,5.9,2.3,11.5,2.7,17.4c.2,2.6,2,4.9,2.3,7.6c.6,5.2,1,10.4,2.3,15.5c2,8,3.5,16.2,4.7,24.4c.5,3,1.3,6,3,9.1ZM266.9,277.4c.5,0,.7,-.2,1.2,-.6c1.8,-2.1,3.7,-4,6,-5.6c3.1,-2.3,6,-4.7,9,-7c1.1,-.8,1.3,-1.5,0,-2.4c-3.1,-2.2,-5.9,-4.8,-8.4,-7.7c-1.3,-1.5,-3,-2.6,-4.7,-3.8c-2.2,-1.4,-4.4,-3,-5.8,-5.3c-2.6,-4.2,-6.2,-7.6,-10.1,-10.6c-4.7,-3.7,-10.2,-6.5,-14.8,-11.2c1.2,4.6,1.7,8.7,2,13c.6,6.6,1.6,13.2,1,20c-.2,2.8,-.2,5.6,-.3,8.4c-.1,.7,0,1.3,.6,1.8c4,3.6,8.9,5.8,13.8,7.8c3.1,1.4,6.6,2,9.8,3.1c.3,.1,.5,.1,.7,.1ZM108.1,274.6c.4,0,.7,-.2,1.1,-.5c1.1,-1.1,2.4,-2.2,3.6,-3.2c3.4,-3.2,7.2,-6,11.5,-8c1.2,-.5,2.8,-.9,2.4,-2.9c-.9,-5.6,-2.6,-11.2,-2.7,-17c0,-2.8,-.3,-5.6,.1,-8.4c.6,-4.3,.9,-8.6,2.4,-12.8c-4.5,1.2,-7.6,4.1,-10.5,7.1c-5.2,5.3,-11.1,9.7,-16.8,14.5c-1.5,1.3,-3.2,2.4,-4.4,3.9c-3.1,3.9,-6.9,7,-11.1,9.7c-1.3,.9,-2.7,1.9,-4.1,2.8c1.3,1.1,2.5,1.9,3.7,2.5c3.4,1.8,7.1,3.3,10.2,5.6c4.3,3.1,9.3,4.5,14.1,6.6c.2,.1,.4,.1,.5,.1Zm.4,-137.2v0c.3,-.9,.3,-1.8,-.1,-3c-.3,1.2,-.2,2.1,.1,3Zm165.3,15.5c1.4,-2.5,3.1,-4.9,4.9,-7.1c3.6,-4.3,5.6,-9,4,-14.8c-.2,-.7,-.2,-1.4,-.3,-2.1c-.3,-2.9,-.8,-3,-3.6,-3.5c-.3,-.1,-.5,-.1,-.8,-.1c-1.7,0,-1.8,1.3,-2.1,2.6c-.5,2.6,-.2,5.2,-.3,7.8c0,3.2,.1,6.4,-.3,9.6c-.3,2.6,-1.3,5,-1.5,7.6ZM106.1,124.1c0,-1.3,.1,-2.3,0,-3.4c0,-.9,-.6,-1.2,-1.4,-1.3q-.1,0,-.1,0c-.8,0,-.8,.7,-.9,1.3c-.3,1.8,.7,2.6,2.4,3.4Zm72.2,-60c.4,0,.9,-.1,1.4,-.5c-1.3,-.3,-2.4,-.6,-3.4,-.8c.6,.7,1.2,1.3,2,1.3Zm1.4,221.3c.8,0,1.6,-.2,2.4,-.4c1.8,-.6,2.8,-1.9,4.2,-2.7c3.3,-2,7.3,-3.2,9.9,-6.1c4.5,-5,10.4,-7.9,15.9,-11.4c4.3,-2.7,9.1,-4.7,11.2,-9.7c1.4,-3.4,3.3,-6.4,5,-9.6c1.2,-2.1,2.5,-4.2,3.5,-6.5c1.9,-5.1,2.9,-10.4,3.9,-15.8c1.4,-7.7,3,-15.5,5.1,-23.1c.5,-1.9,.6,-3.9,.2,-6c-.9,.5,-1.1,1.3,-1.5,2c-1.6,2.9,-3.7,5.4,-6.2,7.5c-3.7,3,-7.8,5.6,-11.3,8.8c-.2,.2,-.4,.5,-.7,.5c-.1,0,-.2,-.1,-.3,-.1c-.5,-.3,-.4,-.8,-.3,-1.3c.2,-.9,.6,-1.8,1.3,-2.5c1.1,-1.1,2.3,-2.2,3.5,-3.2c4.7,-3.9,9.8,-7.5,12.2,-13.4c1.9,-4.7,4.5,-9.1,6.8,-13.6c1.3,-2.5,2.6,-3.7,4.4,-3.7c1,0,2.2,.4,3.5,1.2c1.1,.6,2.5,.9,3.9,.9c2,0,4,-.6,5.4,-1.9c2,-1.9,6.5,-10,7.1,-13c-1.7,1.3,-3.4,2.5,-5,3.8c-.4,.4,-.9,.9,-1.4,.9c-.2,0,-.4,0,-.6,-.3c-.8,-.7,0,-1.4,.5,-2c1.3,-1.6,3.3,-2.3,4.7,-3.8c3,-3,5.3,-6.3,6,-10.7c1,-6.2,1.1,-12.4,1,-18.6c-.1,-2,0,-4,.9,-5.7c.4,-.9,.1,-1.1,-.7,-1.1c-.1,0,-.2,0,-.3,0c-2,0,-3.6,.6,-4.9,2.2c-1.6,2.1,-3.4,4.1,-4.8,6.4c-1.3,2,-2.5,4.1,-2.9,6.7c.5,-.3,1,-.4,1.3,-.4c1,0,1.5,.8,1.9,1.8c.5,.9,2,1.8,1.3,2.7c-.3,.2,-.5,.3,-.7,.3c-.7,0,-1.3,-1,-2,-1.3c-.4,-.2,-.7,-.3,-.9,-.3c-.3,0,-.4,.2,-.7,.9c-.7,1.8,-.8,3.7,-.8,5.6c.1,3.8,-.8,7.2,-4.2,9.5c-1.4,1,-1.6,2.2,-.1,3.5c.5,.3,.9,.8,.5,1.5c-.3,.5,-.7,.7,-1.2,.7c-.2,0,-.3,0,-.5,-.1c-.8,-.1,-1.4,-.6,-1.8,-1.2c-1.2,-1.5,-.9,-4.3,.4,-5.7c1.4,-1.4,3.3,-2.4,4,-4.4c1.1,-3.1,1.4,-6.4,1.4,-9.7c-.1,-3.1,.2,-6.1,1.8,-8.9c1.8,-3.2,4.3,-5.9,6.4,-8.9c1.4,-2,3.2,-3.2,5.7,-3.2c.1,0,.2,0,.3,0c.2,.1,.5,.1,.8,.1c.3,0,.5,-.1,.8,-.1c1.8,0,3.5,.1,5,1.5c.2,.2,.6,.4,.9,.4c.4,0,.7,-.2,.7,-.8c.1,-1.6,-1.4,-3.6,-2.8,-3.8c-1,0,-1.9,-.1,-2.8,-.1c-1.2,0,-2.4,.1,-3.6,.6c-1.6,.6,-3.3,1,-5,1.2c-2.5,.3,-4.9,.9,-6.5,3.2c-2.8,4.4,-7.5,7.3,-9.5,12.3c-.3,.8,-.9,1.5,-1.4,2.2c-.2,.3,-.5,.7,-.8,.7c-.1,0,-.3,-.1,-.4,-.3c-.3,-.3,-.5,-.4,-.7,-.4c-.2,0,-.4,.3,-.7,.6c-.3,.4,-.7,.6,-1.2,.6c-.1,0,-.2,0,-.4,0c-.7,-.3,-.5,-1,-.5,-1.6c0,-.3,.2,-.7,-.4,-.8c-.2,.1,-.4,.3,-.6,.5c-.6,.4,-1.3,1.2,-2,1.2c-.2,0,-.4,-.1,-.5,-.2c-.9,-.6,-.2,-1.7,-.1,-2.6c.3,-2.8,1.7,-5.4,1.2,-8.1c-.9,-5.4,.2,-10.9,-1.4,-16.3c-1.3,-4.3,-2.5,-8.6,-4.8,-12.3c-2,-3.2,-4.2,-6.5,-7.2,-9.1c-.3,-.2,-.7,-.5,-.4,-1c.1,-.2,.3,-.2,.5,-.2c.2,0,.4,.1,.6,.1c1,.3,2,.7,3.4,1.1c-.8,-1,-1.3,-1.8,-1.9,-2.4c-1.3,-1.3,-2.5,-2.6,-3.3,-4.3c-.5,-1,-.5,-1.7,.3,-1.7c.3,0,.7,.1,1.2,.2c-1.1,-1.4,-2,-2.6,-2.5,-4c-.1,-.5,-.2,-.9,.2,-1.3c.2,-.2,.4,-.3,.6,-.3c.2,0,.4,.1,.5,.2c1.9,1.7,4,3,5.7,4.8c.4,.5,.7,1.1,.1,1.6c-2.4,1.6,-1,2.4,.5,3.4c.4,.2,.8,.5,1,.9c.3,.5,.5,1.3,.1,1.5c-2.2,.8,-.5,1.6,-.1,2.4c1.3,2.4,2.3,4.9,3.8,7.3c2.9,4.6,4.4,9.8,4.9,15.3c.4,4.7,.4,9.4,.5,14.1c.1,.4,-.4,1.3,.5,1.3c0,0,.1,0,.1,0c.2,0,.3,0,.4,0c1.2,0,1.2,1,1.3,1.9c.2,.9,-.1,1.9,.4,2.9q1.2,-1.7,3.7,-2.4c.1,-.1,.3,-.2,.3,-.3c.7,-2.9,3.7,-3.8,5,-6.3c2.4,-4.4,6.2,-6.9,11.2,-7.6c.5,0,.9,-.1,1.4,-.3c.7,-.2,1.2,-.6,1.3,-1.5c0,-3.9,.3,-7.8,-.1,-11.7c-.4,-3.8,-.5,-7.6,.1,-11.4c.6,-4.1,.6,-8.3,.1,-12.4c-.7,-5,-1.4,-10,-2,-15C268.2,59.5,266.1,53.6,263,47.8c-.4,-.7,-1,-1.8,-1.5,-1.8c0,0,-.1,0,-.1,0c-.3,.1,-.6,.1,-.8,.1c-1,0,-1.4,-.8,-1.9,-1.5c-1.8,-2.6,-3.9,-4.8,-6.2,-6.8c-3.3,-2.9,-6.9,-5.3,-9.3,-9.1c-1.3,-2.1,-3.4,-3.9,-5.7,-4.9c-5.3,-2.4,-10.8,-4.2,-15.9,-7c-.1,.6,-.1,1.3,-.3,1.9c-.1,.7,-.5,1.1,-1,1.1c-.2,0,-.4,-.1,-.6,-.2c-1.1,-.6,-2.3,-.9,-3.3,-1.7c-2.2,-1.8,-4.2,-3.9,-6.8,-5.5c.2,.9,1.1,1.3,.7,2c-.3,.4,-.7,.6,-1.1,.6c-.3,0,-.7,-.1,-.9,-.2c-2.8,-.4,-5.7,-.6,-7.7,-3.3C200,10.6,199,9.6,197.8,9.6c-.5,0,-1.1,.2,-1.8,.7c-.1,0,-.2,.1,-.3,.1c-.3,0,-.6,-.1,-.8,-.2c-2.1,-.7,-4.2,-1,-6.3,-1c-2.1,0,-4.1,.3,-6.2,.7c-1.3,.2,-2.6,-.2,-3.8,.5c-1.9,1.2,-4.1,1.6,-6.2,2.1c-2.2,.4,-4.4,.9,-6.2,2.3c-.4,.3,-.9,.5,-1.4,.5c-.3,0,-.5,-.1,-.8,-.3c-.9,-.6,-.7,-1.5,-.3,-2.3c.1,-.3,.4,-.6,-.2,-1.1c-3.1,2.7,-7.6,3.3,-10.6,6.4c-.6,.5,-1,1.1,-1.5,1.6c-.6,.7,-1.2,1.4,-1.8,2c-.2,.3,-.6,.6,-1,.6c-.2,0,-.3,0,-.5,-.2c-.3,-.5,-.6,-.6,-.9,-.6c-.4,0,-.9,.3,-1.3,.5c-6.4,2.9,-11.9,7.3,-17.5,11.6c-1.7,1.3,-2.9,2.9,-4.3,4.5c-2.6,3.1,-3.8,7.1,-6.4,10.1c-3,3.5,-4.9,7.4,-6.3,11.7c-1.6,5.3,-3.5,10.4,-5,15.7c-.4,1.6,-.6,2.9,.8,4.2c.6,.5,.6,1.3,.4,2c-.3,1.5,-.6,2.9,-.9,4.4c-.2,.8,-1,1.8,.8,1.9c.8,0,.8,1,.6,1.7c-.3,1.1,-.8,2.1,-1.2,3.2c-.2,.5,-.5,1.1,-.1,1.7c1.7,2.3,1.1,4.6,.1,6.9c-.2,.6,-.6,1.2,.1,2c1.7,1.6,2.3,3.5,1.8,5.8c-.6,2.6,-1,5.3,.8,7.6c.4,.5,.3,1,-.1,1.3c-.7,.7,-.5,1.5,-.5,2.3c.2,2.6,.4,5.2,.5,7.8c.1,.4,.1,.8,.6,1c.6,-.6,.7,-1.5,.5,-2.2c-.5,-2.7,.5,-5.3,.1,-8c-.3,-2.3,.2,-4.6,.6,-6.9c.1,-.5,.3,-1.2,-.3,-1.7c-1,-.9,-1,-2.1,-.8,-3.3c.3,-1.5,-.3,-3.1,.3,-4.6c.1,-.2,.2,-.6,-.2,-.6c-.1,0,-.1,.1,-.2,.1c-.3,0,-.5,0,-.6,0c-1.1,0,-.4,-.9,0,-1.4c.9,-1.5,1.4,-3,2.1,-4.7h-.1c-.3,0,-.6,.2,-.9,.2c-.3,0,-.4,-.2,-.3,-.9c.4,-1.6,2.5,-3.2,.4,-5c-.1,0,.2,-.4,.3,-.7c.4,-2.6,2.2,-4.6,3.2,-7c-1.9,-.1,-2.1,-.4,-1.4,-2c.4,-.9,1.5,-1.6,1.2,-2.5c-.6,-2,.2,-3.8,.9,-5.5c.7,-1.5,1.9,-2.7,3.5,-3.5c.7,-.3,.8,-.8,.6,-1.5c-1.1,-3.6,.3,-6.8,1.5,-10.1c.2,-.4,.3,-1,.8,-1c.1,0,.2,0,.3,.1c.6,.2,.3,.9,.2,1.4c-.3,1.9,-.7,3.8,-1,5.7c.6,-.7,.8,-1.5,1.3,-2.2c.6,-.9,.9,-2.2,2.2,-2.2c.3,0,.5,0,.9,.1c0,0,.1,0,.2,0c.6,0,1.6,-.7,1.8,-1.8c.3,-1.4,1,-2.6,2.2,-3.5c.2,-.2,.4,-.3,.7,-.3c0,0,.1,0,.2,0c.5,.3,.3,.7,.2,1.1c-.1,1,-1,1.7,-.8,3.1c2,-2.2,3.8,-4.4,6,-6.1c1,-.7,1.7,-1.1,2.3,-1.1c.7,0,1.2,.8,1.5,2.4c.3,-.1,.6,-.1,.7,-.3c.7,-.6,1.3,-.9,1.8,-.9c.8,0,1.4,.5,2.1,1.5c.7,.9,1.8,1.5,2.8,2.4c.2,-.9,.1,-1.8,1,-2.1c.1,0,.2,0,.3,0c.4,0,.6,.2,.9,.6c1.4,2.1,3.4,3.4,6,3.6c1.8,.2,3.3,.9,4.7,2.2c.7,.6,1.5,1.1,2.6,1.9c-.1,-.7,-.1,-.9,-.1,-1.2c0,-1.5,.2,-2.1,1,-2.1c.3,0,.9,.1,1.5,.5c1.2,.5,2.4,.8,3.9,1.3c-1,-1.6,-2.3,-2.7,-2.7,-4.2c-.1,-.5,-.3,-1.1,.2,-1.5c.2,-.1,.3,-.2,.5,-.2c.3,0,.7,.2,1,.4c1.7,.9,3.2,2.2,4.6,3.4c1.6,1.4,3.3,2.4,5.6,2.8c-.5,-1.2,-.9,-2.2,-1.3,-3.2c-.2,-.4,-.4,-.9,.1,-1.3c.2,-.1,.3,-.2,.5,-.2c.3,0,.6,.2,.9,.4c1.7,1.2,3.5,2.3,4.9,3.8c1.7,1.8,4.1,2.3,6.2,3.6c.1,-1,-.3,-1.4,-.5,-2c-1.1,-2.7,-2.3,-5.4,-2.1,-8.5c.2,-3.2,1.8,-5,4.4,-5c.7,0,1.5,.1,2.3,.4c1.2,.4,2.4,1,3.6,1.5c-.3,-.7,-.8,-1.1,-1.3,-1.6c-.5,-.5,-.7,-1,.3,-1.3c1.5,-.5,3.1,-1,4.8,-1c1,0,2,.2,3.1,.7c1,.6,2,.9,3.1,1.3c.1,-1.2,.2,-1.7,.7,-1.7c.3,0,.6,.1,1.1,.2c2,.6,3.6,1.8,5.2,3.1c1.7,1.4,3.4,2.8,5.6,4.5c-.6,-1.7,-1,-2.9,-1.2,-4.2c-.2,-.8,-.6,-1.7,.1,-2.5c.2,-.2,.5,-.2,.6,-.2c.6,0,1.1,.6,1.6,.7c.3,0,.6,.1,1,.2c3.2,.8,6.1,2.3,8.1,5.2c1.9,2.8,3.8,5.6,5.7,8.5c.4,.6,.8,1.4,.3,1.9c-.7,.8,0,.9,.4,1.3c.5,.3,1,.7,1.4,1.1c.3,.2,.7,.5,.5,1c-.1,.3,-.4,.4,-.6,.4c-.2,0,-.3,-.1,-.4,-.1c-.7,-.4,-1.5,-.5,-2.3,-.5c-.5,0,-.9,0,-1.4,0c-.3,0,-.6,0,-.9,0c1.2,1.5,2.5,3,3.3,5.1c-.6,-.2,-.9,-.3,-1.2,-.4c-.3,-.1,-.5,-.4,-.8,-.4c0,0,-.1,0,-.2,.1c.2,1.9,.1,3,-.3,3.2c.6,.6,1.2,1.2,1.8,1.9c.2,.4,.3,1,-.2,1c0,0,-.1,0,-.1,0c-.4,-.1,-.8,-.1,-1.3,-.1c-.3,0,-.6,0,-.9,0c-1,0,-1.9,-.2,-2.5,-1.3c-.6,-1,-1.5,-1.9,-2.1,-2.9c-.5,-.7,-1,-1.6,-.4,-2.5c.2,-.3,.4,-.4,.6,-.4c.5,0,1,.7,1.5,.7q.1,0,.1,0c-.1,-1.1,-1.2,-1.8,-1.2,-2.9q.1,0,.2,0c.3,0,.5,.4,.8,.4q.1,0,.2,-.1c-.3,-1.2,-2.1,-1.8,-1.5,-3.3c.2,-.4,.5,-.5,.8,-.5c.4,0,.8,.1,1.3,.1c.1,0,.2,0,.3,0c-.4,-.7,-.7,-1.3,-1,-1.8c-.5,-.9,-1.1,-2.1,-.4,-2.8c.2,-.3,.5,-.4,.7,-.4c.7,0,1.3,.6,1.9,1.1c0,0,.2,-.2,.2,-.2c-4.7,-7.9,-6.4,-10,-11.5,-10.5c.3,3.4,4,5.8,2.9,10.1c-4.6,-3.4,-8.1,-7.8,-13,-10.7c-.1,.8,.5,1.7,-.3,2.2c-.1,.1,-.3,.1,-.4,.1c-.6,0,-1,-.5,-1.5,-.8C206,50.9,203.9,50,201.7,49.2c-.5,-.2,-1,-.2,-1.5,-.2c-.7,0,-1.4,.1,-2.1,.3c1.6,1.8,2.8,3.7,3.4,5.8c.2,.8,.6,1.7,-.4,2.2c-.2,.1,-.3,.1,-.5,.1c-.6,0,-.8,-.7,-1.2,-1.1c-2.1,-2.8,-4.8,-4.4,-8.2,-4.9c-.2,0,-.4,0,-.5,0c-1,0,-1.4,.5,-1.5,1.6c-.2,2.1,.2,4.1,.8,6.1c.4,1.4,1,2.3,2.7,2.4c1,.1,1.9,.5,2.9,.9c.4,.1,1.1,.4,.9,1.1c-.2,.3,-.4,.5,-.7,.5c-.3,0,-.6,-.2,-.9,-.3c-1.1,-.5,-2.2,-1.1,-3.6,-1.3c.2,.6,.4,1,.4,1.5c.2,.9,1.1,1.8,.3,2.6c-.2,.2,-.5,.3,-.8,.3c-.6,0,-1.3,-.3,-1.9,-.4c-1.9,-.3,-3.5,-1.5,-5.3,-2.2c-.5,-.2,-1.2,-.3,-1.7,-.3c-1.3,0,-2.5,.4,-2.7,1c-.4,1.2,-.9,1.6,-1.4,1.6c-.6,0,-1.2,-.3,-1.6,-.6c-3.1,-1.4,-6.5,-1.9,-9.5,-3.5c-.5,-.3,-1.1,-.6,-1.7,-.6c-.2,0,-.3,0,-.4,.1c.1,1.3,.8,2.4,1.3,3.5c.2,.4,.6,.8,.1,1.3c-.2,.1,-.6,.1,-1.1,.1c-1.1,0,-2.7,-.2,-2.8,-.6c-1.4,-3,-4,-4.4,-6.6,-5.8c-.7,-.3,-1.4,-.8,-1.8,-1.3c-.4,-.6,-.9,-.8,-1.3,-.8c-.8,0,-1.6,.6,-2.4,.6q-.1,0,-.1,0c0,0,-.1,0,-.1,0c-.3,0,-.3,.2,-.5,.3c-.7,.9,-1.3,1.3,-1.8,1.3c-.6,0,-1.1,-.4,-1.8,-1.3C145,58,143.9,56.7,143,55.3c-.5,-.7,-1,-1.1,-1.5,-1.1c-.4,0,-.9,.4,-1.4,1c-2.2,2.6,-4.3,5.2,-6.1,8c-.3,.4,-.6,.9,-1.1,.9c-.1,0,-.2,0,-.3,-.1c-.8,-.3,-.7,-1.1,-.4,-1.7c.6,-1.2,1.3,-2.4,1.9,-3.6c.6,-1.1,1.3,-2.1,1.4,-3.7c-1.3,.7,-1.9,1.5,-2.6,2.3c-1.9,2.2,-4.1,4.3,-4.8,7.3c-.1,.5,-.3,1.1,-.9,1.1q-.1,0,-.2,0c-.4,-.1,-.4,-.7,-.4,-1c0,-1,-.6,-1.6,-1.2,-2.7c-1.5,2.5,-2.4,4.7,-2.6,7.3c-.1,.8,-.3,1.4,-1,1.4c-.2,0,-.4,0,-.6,-.1c-.3,0,-.5,-.1,-.7,-.1c-.9,0,-1.3,.8,-1.5,1.6c-.5,1.5,-1.1,2.9,-1.3,4.5c-.7,3.3,-1.1,6.8,-2.9,9.8c-.2,.2,-.5,.6,-.1,.8c1.6,.9,.8,2,.3,2.9c-1.2,1.8,-.1,4.2,-1.5,5.9c-.1,.1,0,.4,.2,.5c.7,.9,.4,1.7,.4,2.7c-.2,2.3,-.8,4.4,-1.3,6.7c-.1,.6,-.4,1.3,.2,1.9c1.3,1.1,1,2.5,.8,3.9c-.5,3.6,-1.1,7.2,-.8,10.7c.3,3.9,-.2,7.6,-.6,11.4c-.2,1.4,-.3,2.8,.1,4.2c.9,2.9,.9,5.9,.8,8.9c-.1,2.9,-.8,5.8,1,8.5c.8,1.3,1.2,2.9,1.4,4.4c.4,3.7,1,7.2,2.3,10.8c1,3.1,2,6.4,2.7,9.6c.8,3.7,.8,7.5,1.3,11.2c1.1,7.5,2.8,14.8,4.7,22.2c1,4,2.7,7.6,6.2,10.2c2.2,1.7,4.2,3.7,6.3,5.6c.4,.4,.9,1.1,.3,1.6c-.1,.1,-.2,.1,-.3,.1c-.4,0,-.8,-.4,-1.1,-.6c-2.3,-1.8,-4.5,-3.6,-7.2,-5.7c1.7,5,3.3,9.4,6.9,12.8c3.5,3.4,6.4,7.2,8.3,11.8c1,2.6,2.8,4.8,4.9,6.8c2.6,2.5,4.7,5.4,6.2,8.8c1.2,2.6,2.3,5.3,4.3,7.6c4,4.5,8.6,8.2,13.8,11.3c1.4,.9,2.8,1.5,4.4,1.5Zm15.5,62.4c-1.3,0,-1.2,-1.7,-1.3,-2.7c-.6,-6.7,-1.2,-13.5,-2.7,-20.1c-.3,-1.3,-.8,-2.2,-2.1,-2.2c0,0,-.1,0,-.2,0c-1.3,.1,-2.6,.2,-3.9,.2c-1.9,0,-3.9,-.1,-5.8,-.1c-.4,0,-.8,0,-1.2,0c-4.3,.1,-5,.8,-5.4,5.1c-.3,4.3,-.7,8.6,-1.2,12.8c-.1,1,-.4,2,-.7,2.9c-.2,.5,-.3,1.2,-.9,1.2c0,0,-.1,0,-.1,0c-.6,-.1,-.7,-.8,-.8,-1.3c-.7,-3.5,-.7,-7,-.2,-10.4c.5,-3.4,0,-6.9,1.4,-10.1c.4,-.9,-.4,-1.2,-.9,-1.6c-2.4,-2.3,-5.3,-3.8,-7.6,-6.2c-1.6,-1.7,-3.2,-3.4,-4.5,-5.4c-.3,-.6,-.7,-1,-1.1,-1c-.3,0,-.5,.3,-.8,.8c-2.2,4.2,-6.1,6.8,-9.5,9.8c-1.8,1.6,-2.6,3.4,-1.8,6c1,3.3,1,6.8,.9,10.3c0,.4,-.1,.8,-.2,1.2c-.1,.8,-.8,1.1,-1.4,1.2q-.1,0,-.2,0c-.6,0,-.6,-.7,-.7,-1.1c-1,-2.2,-.7,-4.7,-1,-7c-.3,-3.1,-.8,-6.1,-2.1,-8.9c-2.9,-6.6,-4,-13.7,-4.7,-20.7c-.4,-5,-2.2,-9.5,-3.2,-14.3c-1.4,-7.1,-3.5,-14.2,-3.9,-21.5c0,-.7,-.1,-1.1,-.5,-1.1c-.2,0,-.5,.1,-.9,.4c-5.5,3.2,-10.7,7,-15,11.7c-2,2.1,-3.7,4.7,-6.1,6.4c-4.2,3.1,-8.4,6.2,-12.4,9.6c-1.4,1.2,-3.1,2.1,-4.7,3.1c-.9,.5,-1,1.1,-.7,2.1c1,3.9,3.2,7.4,4.5,11.2c2.8,8,5.3,16.1,6.5,24.6c.2,1,.7,2.6,-.6,3c-.1,0,-.2,.1,-.2,.1c-.9,0,-1.4,-1.4,-1.8,-2.2c-1,-1.9,-1.8,-4,-2.3,-6c-1.9,-6.8,-3.9,-13.5,-6.4,-20.1c-1.4,-3.7,-3.1,-7.2,-4.4,-11c-.7,-2.1,-.6,-2.6,1.4,-3.5c1.4,-.7,2.2,-2,3.3,-3c3.6,-3.2,7.5,-6,11.7,-8.4c1.4,-.8,2.6,-1.8,4,-2.6c1.6,-.9,1.1,-1.6,-.1,-2.2C100,275.5,97.4,274,94.5,273.2c-4.6,-1.3,-8.4,-4,-11.9,-7c-1.4,-1.2,-2.8,-2.5,-4.3,-3.6c-.5,-.4,-1,-.7,-1.7,-.7c-.1,0,-.2,0,-.3,0c-.1,0,-.2,0,-.4,0c-.5,0,-.9,-.1,-1.1,-.7c-.2,-.7,.1,-1.2,.6,-1.6c.8,-.8,1.7,-1.5,2.6,-2.2c5.4,-3.8,10.9,-7.3,15,-12.6c1.1,-1.5,2.7,-2.5,4.1,-3.6c4.3,-3.5,8.3,-7.3,12.3,-11.2c-4.6,1.8,-9.3,2.8,-14.1,3.8C84,236.3,73.2,240.6,62.2,244.2c-5.1,1.7,-10.3,2.9,-15.4,4.6c-.3,.1,-.6,.1,-.9,.1c-1.5,0,-2.1,-1.4,-3,-2.1c-.5,-.4,.7,-2.1,1.7,-2.8c1.1,-.8,2.3,-1.3,3.6,-1.7c10.6,-3.4,21.3,-6.2,32,-9.3c7.1,-2.1,14.3,-3.6,21.4,-5.6c5.1,-1.4,10.2,-3.2,14.8,-6.1c2,-1.4,4.6,-1.8,6.4,-3.8c.7,-.8,1.1,-1.4,.8,-2.7c-2,-8.9,-4.5,-17.6,-6,-26.6c-.6,-4.1,-.5,-8.4,-1.8,-12.3c-1.6,-5.1,-2.2,-10.4,-3.7,-15.4c-.8,-3,-2.6,-5.7,-3,-8.9c-.2,-1.8,.1,-3.6,-.6,-5.3c-.9,-2.3,-2.5,-4,-4,-5.8c-.9,-1.2,-1.2,-2.4,-1.1,-3.9c.1,-1.2,-.1,-2.4,0,-3.6c0,-1.8,-.4,-3.2,-2.1,-4.2c-2.3,-1.3,-3.1,-3.4,-2.6,-6c.2,-1.2,.3,-2.3,.3,-3.5c.2,-2.6,.8,-3.6,3,-3.6c.3,0,.6,0,.8,0c.2,0,.4,.1,.6,.1c1.7,0,2.2,-.9,1.9,-2.6c-.3,-2.1,.2,-4.4,-1.5,-6.1c-.1,-.1,-.1,-.3,-.1,-.4c.6,-2.8,-1.5,-5.3,-1.2,-8c.3,-3,-1,-5.9,.1,-8.8c.1,-.4,.1,-1,-.4,-1.2q-.1,0,-.2,0c-.3,0,-.5,.5,-.6,.8c-.1,.3,-.3,.6,-.7,.7c-.7,-.6,-.5,-1.4,-.2,-2.2c2.3,-7.2,3.8,-14.6,5.2,-22.1c2.4,-12.7,10,-22.6,17.9,-32.2c3.7,-4.5,8.6,-7.9,13.4,-11.2c5.5,-3.6,11.4,-6.8,16.3,-11.4c.5,-.5,1.2,-1.6,2.1,-1.6c.4,0,.9,.3,1.4,1.2c0,0,.1,0,.1,0c.2,0,.6,-.1,.8,-.3c4,-2.1,8.3,-3.5,12.7,-4.6c.4,-.1,.9,-.3,1.3,-.3c.3,0,.5,0,.7,.2c.7,.6,.1,1.2,-.3,1.8c-.2,.3,-.3,.6,-.1,.9c.2,.1,.3,.2,.4,.2c.3,0,.5,-.2,.7,-.2c3.1,-1,6.1,-1.9,9.1,-2.8c.5,-.2,1,-.5,1.5,-.5c.1,0,.3,0,.5,0c2.6,0,5.3,-.5,7.9,-.5c1.4,0,2.8,.1,4.2,.6c4.9,1.7,10,2.4,15,3.6c.8,.2,1.5,.6,2.2,1c.4,.4,.9,.8,1.2,.8c.3,0,.6,-.3,.8,-1.1c.1,-.3,.3,-.4,.6,-.4c.3,0,.7,.1,1,.2c2.1,.6,4,1.6,5.8,2.7c3.7,2.4,8,3.5,12,5.2c4.6,2.1,8.8,4.8,11.8,8.8c2.5,3.3,5.7,5.6,8.6,8.3c2.5,2.5,5.6,4.3,7.9,6.9c5.2,5.7,8.3,12.4,9.2,20c.5,3.9,2,7.7,2.1,11.6c.2,5.5,1.1,10.9,2.1,16.3c.2,1.2,.8,2.7,-1.1,3.4c-.4,.1,-.2,.7,-.2,1.1c.1,1.3,.1,2.7,.3,4c.8,5,-1,9.7,-1,14.6c0,1.1,-.1,1.5,1.2,1.8c6.4,1,9.6,4.4,10.3,10.5c.4,3.6,.9,7.2,1.5,10.7c.7,3.9,-.9,7.2,-3,10.4c-3.5,5.3,-7.2,10.6,-10.3,16.2c-1.9,3.4,-3.7,6.8,-5.3,10.4c-1.3,2.7,-3.2,4.9,-5.3,7c-2,2.1,-4.2,2.8,-6.5,2.8c-1.8,0,-3.7,-.5,-5.6,-1.1c-.6,-.3,-1,-.4,-1.4,-.4c-.8,0,-1.2,.6,-1.6,1.7c-1.7,5.2,-3.6,10.3,-3.6,16c0,5,-.7,10,-1.9,14.9c-.4,1.6,-.5,3.3,-.8,5c-.1,.7,.2,1.3,.6,1.8c1.2,1.4,2.4,2.7,4,3.6c5.9,3.4,12,6.1,18.4,8.4c5.3,2,10.6,4.2,16.1,5.8c4.5,1.3,9.1,2.6,13.3,4.8c3.4,1.7,6.7,3.5,10.2,4.7c3.5,1.2,6.9,2.3,10.4,3.3c2.1,.5,3.9,1.6,5.9,2.4c.7,.2,1.1,.7,1.5,1.5c-1.5,.4,-3,.9,-4.5,.9c-1,0,-1.9,-.2,-3,-.7c-3.7,-1.5,-7.6,-2.4,-11.4,-3.7c-4.6,-1.4,-8.6,-4,-13,-5.9c-6,-2.7,-12.5,-4.2,-18.8,-6.3c-3.7,-1.2,-6.8,-3.4,-10.5,-4.5c-.8,-.2,-1.6,-.8,-2.8,-.8c2.1,2.3,4.3,4.2,6.2,6.4c1.7,2,2.6,4.7,5.1,6.1c5.9,3.4,9.9,9.1,15.1,13.4c3.5,2.8,4,3.6,.2,6.8c-3.2,2.7,-6.6,5.2,-10,7.7c-1.6,1.2,-2.9,2.7,-4.3,4.1c6.5,4.2,13.1,8.1,20.2,10.9c2.2,.8,3.7,2.6,5.8,3.5c1.2,.4,.9,1.8,.6,2.8c-.9,3.4,-2.2,6.7,-3.9,9.7c-2.9,5.2,-4.7,10.8,-6.8,16.3c-2.2,5.9,-4.3,11.8,-6,17.9c-.6,2.1,-1.8,4,-3.3,5.7c-.3,.3,-.7,.8,-1.1,.8c-.1,0,-.3,-.1,-.4,-.1c-.6,-.4,-.5,-1.1,-.4,-1.7c2,-7,2.9,-14.3,6.2,-20.9c.6,-1.2,1.1,-2.4,1.4,-3.6c1.6,-5.7,3.9,-11.1,6.9,-16.2c1.2,-2.2,2.1,-4.5,3,-6.8c.4,-1.2,.4,-1.9,-.9,-2.5c-4.1,-1.9,-8,-4.1,-12.1,-5.8c-4.2,-1.8,-7.4,-5,-11.5,-7c-2.8,-1.3,-5.6,-2,-8.5,-2.9c-6.1,-1.7,-12.2,-3.7,-17.1,-8.1c-.2,-.2,-.5,-.5,-.9,-.5q-.1,0,-.2,0c-.3,1.6,-.6,3.2,-.5,4.9c.4,7,-.8,13.8,-1.6,20.8c-1,8.7,-2.2,17.4,-4.6,25.8c-.4,1.7,-.8,3.6,-2.5,4.9c-.8,-1.9,-.3,-3.8,-.1,-5.5c1.1,-6.9,2.3,-13.8,3.2,-20.7c.5,-3.3,.6,-6.8,1.2,-10.2c-2.3,2.2,-4.5,4.5,-6.1,7.2c-1.5,2.4,-3,4.7,-4.9,6.7c-4.3,4.4,-8.5,8.9,-13.5,12.6c-.6,.5,-1.1,.8,-1.7,.8c-.5,0,-.9,-.2,-1.3,-.6c-.4,-.3,-.8,-.5,-1.2,-.5c-.4,0,-.8,.2,-1.2,.4c-3.8,1.7,-7.7,3.3,-11.7,4.7c-1.1,.3,-1.3,.7,-1,2c1.7,7.3,3.3,14.8,1.9,22.4c-.2,1,-.2,2.7,-1.2,2.7Z" /></clipPath>
<clipPath id="c1_1"><path d="M134.1,191.9c-.5,0,-.9,-.6,-1.2,-1c-2.2,-2.6,-2.5,-5.7,-1.2,-8.5c2.5,-5.4,5,-10.7,7,-16.2c1,-2.5,2.2,-4.9,1,-7.7c-.4,-.8,-.2,-1.7,.1,-2.5c2.9,-7.6,5.3,-15.3,7.7,-23.1c1.6,-5.4,4.3,-10.3,5.8,-15.8c1.3,-4.4,.7,-8.5,-1.5,-12.3c-.8,-1.3,-2.1,-2.3,-3.4,-3.2c-.9,-.7,-2.1,-1.2,-1.6,-3c.1,-.7,-.8,-1.7,-1.3,-2.6c-.5,-.8,-1,-1.6,-1.4,-2.4c-.2,-.4,-.2,-.9,.1,-1.1c.2,-.1,.3,-.2,.4,-.2c.2,0,.5,.2,.6,.5c.4,.5,.6,1.1,1.2,1.1c.2,0,.4,-.1,.7,-.3q.1,0,.1,0c.1,0,.6,.4,.8,.7c.6,1,1.5,1.9,1.7,2.9c.7,2.7,2.6,4.4,4.5,6.2c.1,.3,.2,.5,.3,.8c0,.6,.3,1.1,.5,1.7c2.2,3.9,2.1,8.1,.9,12.2c-2.5,9.7,-6.8,18.8,-9.2,28.5c-.7,2.8,-2.6,5.1,-3.6,7.8c-.3,.6,-.6,1.3,-.7,2c-.1,1.3,-.2,2.5,1.6,2.5q.1,0,.2,0c0,0,.1,0,.1,0c.7,0,1.4,.4,1.9,.9c2.7,2.1,5.9,3.3,9.1,4.5c.5,.2,1,.4,1.4,.7c.5,.3,.8,.7,.6,1.3c-.2,.4,-.5,.6,-.8,.6c-.2,0,-.4,-.1,-.6,-.2c-2.8,-1,-5.8,-1.5,-8.3,-3.3c-.2,-.2,-.6,-.5,-.8,-.5c-.1,0,-.2,0,-.2,.1c-.4,1,-.8,1.3,-1.1,1.3c-.7,0,-1.4,-1.1,-2,-1.3c-.6,-.3,-1.1,-.8,-1.6,-1.2c-1.9,7.1,-4.7,13.7,-8.1,20.1c-1.4,2.8,-1.5,5.4,.4,8.1c.4,.5,1,1.2,.3,1.7c-.2,.1,-.3,.2,-.4,.2Z" /></clipPath>
<clipPath id="c2_1"><path d="M155.4,192.8c.5,0,1.1,-.1,1.8,-.2c1.8,-.5,3.7,-.9,5.6,-.9c.9,0,1.8,.1,2.6,.3c.9,.3,1.6,.4,2.4,.4c2.7,0,5,-1.4,7.5,-2.3c-2.7,-.4,-5.4,-1.4,-8.1,-1.4q-.1,0,-.2,0c-2.8,.1,-5.6,.1,-8.4,.5c-2.3,.2,-4.7,-.2,-6.9,.9c-.3,.1,-.9,.1,-.9,.6c-.1,.5,.4,.7,.8,1c1.2,.7,2.4,1.1,3.8,1.1Zm25.1,-3.7v0c-2.4,-2.3,-5.5,-2.2,-8.2,-3.3c-2.4,-.9,-4.9,-1.4,-7.4,-1.4c-1.5,0,-3,.2,-4.6,.5c-.4,.1,-.9,.1,-1.4,.1c-.2,0,-.4,0,-.6,0c-.8,-.1,-1.6,-.1,-2.2,-.1c-3.2,0,-5,.9,-7.9,3.7c5,-1.4,9.9,-2.1,14.7,-2.1c5.9,0,11.7,.9,17.6,2.6Zm-41.3,7.6c-.2,0,-.3,-.1,-.5,-.2c-.6,-.5,.2,-1,.2,-1.4c.6,-3.7,3.6,-5.4,6,-7.4c3,-2.6,6.3,-4.9,10.3,-4.9c1.1,0,2.2,.2,3.3,.5c.3,.1,.6,.1,.9,.1c.5,0,1,-.1,1.5,-.2c1.6,-.5,3.1,-.7,4.6,-.7c2.6,0,5.2,.6,7.7,1.6c2.7,1,5.4,1.9,8.1,2.9c3.5,1.5,5.2,4.6,7.5,7.2c.3,.4,.5,.9,.1,1.3c-.2,.2,-.4,.3,-.7,.3c-.3,0,-.6,-.2,-.7,-.4c-.7,-1.2,-2,-1.5,-2.9,-2.5c-.8,-1,-1.9,-1.5,-3.1,-1.5c-.3,0,-.6,.1,-.9,.1c-.2,0,-.4,0,-.6,0c-3.3,0,-6.1,1.8,-9.1,2.7c-.9,.3,-1.8,.6,-2.7,.6c-.3,0,-.6,-.1,-.9,-.1c-1.4,-.4,-2.7,-.5,-4.1,-.5c-2.2,0,-4.5,.3,-6.7,.7c-.5,.1,-1,.1,-1.5,.1c-2.2,0,-4.3,-.9,-5.9,-2.6c-.8,-.9,-1.6,-1.3,-2.4,-1.3c-.7,0,-1.5,.4,-2.3,.8c-1.7,1.1,-3.2,2.2,-4.3,3.9c-.2,.3,-.5,.9,-.9,.9Z" /></clipPath>
<clipPath id="c3_1"><path d="M165.5,235.5c-1.8,0,-3.6,-.8,-5.5,-.8c-.5,0,-1.1,0,-1.7,.2c-.6,.2,-1.2,.3,-1.8,.3c-2.3,0,-4.6,-1,-6.8,-1.6c-3.2,-.9,-5.8,-2.6,-7.7,-5.5c-1.7,-2.8,-4.1,-5.1,-7,-6.8c-.6,-.3,-1.2,-.8,-1.8,-1.2c-.6,-.4,-1.3,-.8,-.7,-1.6c.2,-.3,.5,-.4,.8,-.4c.3,0,.7,.1,1,.2c2.6,1.2,5,2.7,6.9,4.8c1,1,2,2,2.7,3.2c2.3,4,6.1,5,10.4,5.8c-.5,-.8,-1.2,-.9,-1.8,-1.2c-1.5,-.7,-3,-1.5,-4.2,-2.7c-.6,-.5,-1.4,-1,-.9,-1.8c.2,-.3,.4,-.4,.6,-.4c.5,0,.9,.5,1.3,.7c2.2,1.5,4.8,2.5,7.1,3.8c2.6,1.5,5.2,2.1,8,2.1c1.8,0,3.6,-.3,5.4,-.8c6,-1.7,12.1,-2.8,18.2,-4.2c4,-.9,7.5,-3.5,11,-5.6c1.7,-1,3.3,-2.1,5,-3.1c.3,-.1,.6,-.4,1,-.4c.2,0,.3,0,.4,.2c.5,.5,.2,1.1,-.1,1.6c-.8,1.2,-1.7,2.1,-2.8,2.9c-3.9,2.7,-7.9,5.1,-12.2,6.9c-2.6,1.1,-5.4,1.4,-8,1.8c-5,.7,-9.5,2.8,-14.5,3.3c-.3,0,-.7,0,-1,.1c-.4,.1,-.9,.2,-1.3,.2Z" /></clipPath>
<clipPath id="c4_1"><path d="M186.9,117.1c.2,0,.4,-.1,.5,-.4c.1,-.2,-.1,-.6,-.3,-.6c-.1,-.1,-.2,-.1,-.3,-.1c-.4,0,-.6,.5,-.8,1c.3,0,.6,.1,.9,.1Zm4.8,.2c2.3,0,4.7,-1.9,5,-4.4c.2,-1.2,-.7,-2,-1.6,-2q-.1,0,-.2,0c-1.1,0,-.2,1,-.3,1.6c0,2.1,-1.1,3.4,-2.7,3.4c-.2,0,-.4,0,-.7,-.1c-1.5,-.3,-1.6,-1.6,-2,-2.9c-1,1.9,-.1,4,1.7,4.3c.2,.1,.5,.1,.8,.1Zm5.7,-.4c2.7,0,4.5,-1.8,6.9,-2.3c-1.8,-1.9,-3.8,-2.9,-6.7,-3.9c1.2,2.6,.5,4.4,-1.1,6.2c.3,0,.6,0,.9,0Zm-.9,2.5c-.6,0,-1.2,-.1,-1.8,-.3c-1.6,-.5,-3.2,-.5,-4.9,-.5c-.7,0,-1.4,0,-2.1,0c-.4,0,-.8,0,-1.1,0c-1.3,-.1,-3,0,-3.5,-1c-.6,-1.1,1,-2.1,1.8,-3c.8,-1,1.8,-1.9,2.5,-2.9c1.6,-2.8,4,-3.5,6.7,-3.5c.6,0,1.2,.1,1.9,.1c3.7,.4,6.5,2.5,9.3,4.7c1.1,.9,2.9,.8,3.8,2.8c-.4,0,-.7,0,-1.1,0c-3.1,0,-5.5,1.7,-8.2,2.8c-1.1,.4,-2.2,.8,-3.3,.8Z" /></clipPath>
<clipPath id="c5_1"><path d="M213.9,103.5c-.1,0,-.2,0,-.3,0c-1.8,-1,-3.7,-1.1,-5.6,-1.3c-1.7,-.2,-2.7,-1.9,-4.4,-1.9c0,0,-.1,0,-.1,0c-.2,0,-.4,-.4,-.2,-.7c.1,-.2,.4,-.3,.6,-.3c1.1,-.2,2.1,-.4,3.5,-.6c-.5,-.1,-1.1,-.2,-1.6,-.2c-1.4,0,-2.7,.5,-4,.6c-.6,.1,-1.2,.3,-1.9,.3c-.5,0,-1,-.1,-1.5,-.6c-.1,-.1,-.3,-.2,-.4,-.2c-.3,0,-.6,.3,-.9,.4c-.4,.1,-.9,.4,-1.3,.4c-.4,0,-.6,-.2,-.8,-1c0,-.1,0,-.2,0,-.2c-.3,.2,-.6,.2,-.9,.2c-.6,0,-1.3,-.3,-1.9,-.3c-.1,0,-.2,0,-.3,.1c-.4,0,-.8,.6,-1.3,.6c-.1,0,-.3,0,-.4,-.1c-.4,-.2,-.3,-.5,.6,-2.5c-1.8,1.2,-3.6,.5,-4.9,1.8c-.2,.1,-.4,.2,-.6,.2c-.2,0,-.5,-.1,-.7,-.3c-.5,-.6,-.2,-1.1,.2,-1.4c1.8,-1.8,3.8,-3.5,6.3,-4.2c.3,-.1,.7,-.3,1,-.3c.4,0,.8,.2,1.1,1c.1,.2,.5,.2,1.1,.2c.8,0,1.8,-.1,2.5,-.1c.3,0,.7,-.2,1,-.2c.3,0,.5,.2,.2,1.1c-.1,.4,0,.5,.2,.5c.2,0,.5,-.1,.6,-.1c.9,-.1,1.7,-.3,2.6,-.3c.2,-.1,.4,-.1,.6,-.1c.5,0,.8,.2,.7,1c-.1,0,.1,.2,.1,.2c.2,0,.4,0,.5,0c1.6,0,2.5,1.7,4.1,1.7c.2,0,.3,0,.5,-.1c.2,0,.5,-.1,.8,-.1c.7,0,1.4,.3,1.3,1.5c0,.2,.1,.3,.2,.3c.1,0,.3,-.1,.4,-.1c.2,0,.3,.1,.5,.1c.1,0,.3,-.1,.4,-.1q.1,0,.1,0c.9,.1,1.8,.2,2,1.1c.1,1.2,-1.3,.4,-1.7,1.3c.8,.4,2,.7,2.1,1.9c0,.2,.7,.3,.3,.7c0,.1,-.2,.1,-.4,.1Z" /></clipPath>
<clipPath id="c6_1"><path d="M130.6,116.2v0c-.1,-1.2,-.2,-2.3,-.4,-3.8c-2.2,2.8,-2.1,3.2,.4,3.8Zm9.3,-.4c.8,-.5,1.6,-.6,2.4,-.6c.7,0,1.4,0,2.1,0c.7,0,1.4,-.1,2.1,-.4c-2.3,-.6,-4.1,-2,-5.9,-3.5c-.1,1.7,-.2,3,-.7,4.5Zm-4.5,.1c.1,0,.2,0,.3,0c2.5,-.1,3.8,-1.8,3.6,-5.4c-.1,-1.1,-.7,-1.3,-1.4,-1.3c-.4,0,-.8,0,-1.2,0c-.2,0,-.4,0,-.6,0c0,-.1,-.1,0,-.4,-.1c-.2,.1,-.4,.1,-.6,.1c-.2,0,-.5,0,-.8,0c-.8,0,-1.6,.1,-2.1,1.2c-1.6,3.2,-.2,5.5,3.2,5.5Zm1.6,2.6c-3,-1,-6.2,-.2,-9.1,-1.6c-.2,-.1,-.5,-.2,-.7,-.2c-2.4,-.1,-2.3,0,-1.7,-2.3c1.3,-5,5.6,-7.3,9.6,-7.3c.7,0,1.4,.1,2.1,.2c1.4,.3,2.5,.8,3.5,1.8c1.9,1.7,4.3,2.6,6.5,3.9c.4,.2,.8,.3,1.1,.6c.7,.5,1.9,.8,1.7,1.9c-.2,1,-1.3,.8,-2,.9c-3.7,.6,-7.4,1,-11,2.1Z" /></clipPath>
<clipPath id="c7_1"><path d="M199.2,238.7c-.5,0,-.7,-.2,-.8,-.6c-.2,-.5,.1,-.8,.4,-1.2c1.3,-1.8,3,-3.2,4.8,-4.3c4.3,-2.7,5.8,-7.2,7.6,-11.5c1.8,-4.4,3.9,-8.6,6.7,-12.5c.7,-.9,1.4,-1.6,2.5,-1.9c.2,0,.3,0,.4,0c.6,0,.9,.3,.7,1.1c-.3,.8,-.7,1.5,-1.2,2.1c-4.2,5.3,-6.3,11.7,-9,17.8c-.7,1.7,-1.6,3.2,-3,4.3c-2.6,2.2,-5.4,4.2,-8.1,6.2c-.3,.2,-.7,.4,-1,.5Z" /></clipPath>
<clipPath id="c8_1"><path d="M192.2,197.6c-.1,0,-.2,0,-.3,0c-.7,-.4,0,-1,.2,-1.4c3.2,-5.2,2.3,-10.4,.3,-15.8c-1,-2.8,-2.3,-5.5,-3.4,-8.3c-1.9,-4.8,-5,-8.6,-8.4,-12.3c-.6,-.7,-2.1,-1.8,-1,-2.7c.3,-.2,.5,-.3,.7,-.3c.7,0,1.1,1.2,1.6,1.7c1.3,1.3,2.4,2.7,3.6,4.1c4.1,4.8,6.5,10.5,8.5,16.4c.9,2.8,2,5.5,1.9,9.4c-.2,2.4,-.4,5.7,-2.8,8.3c-.2,.4,-.5,.9,-.9,.9Z" /></clipPath>
<clipPath id="c9_1"><path d="M158.7,164.9c-.1,0,-.2,0,-.3,-.1c-.7,-.4,-.4,-1.3,.1,-1.7c2.7,-3.1,6,-5.5,10.1,-6.2c.3,-.1,.6,-.1,.8,-.1c1.6,0,2.2,1.1,2.4,3.4c.1,.8,-.5,1.9,.7,2.3c.2,0,.3,0,.4,0c1,0,1.4,-.9,1.8,-1.6c.8,-1.4,1.6,-2.8,1.2,-4.6c-.2,-.9,-.3,-2.3,.9,-2.5q.1,0,.2,0c.9,0,1,1.3,1.2,2.1c.2,.5,.1,1,.2,1.7c-.2,2.3,-1.6,4.4,-3.4,6.1c-.5,.5,-1.1,.8,-1.8,.8c-.4,0,-.8,-.1,-1.2,-.3c-1.4,-.8,-2.8,-1.2,-4.3,-1.2c-.8,0,-1.6,.1,-2.4,.3c-.2,.1,-.5,.2,-.7,.2c-.3,0,-.5,-.2,-.6,-.6c-.2,-.6,.4,-.9,.9,-1.1c1,-.5,2,-.5,3.1,-.5c.3,0,.6,0,.8,0c.2,0,.3,0,.4,0c.3,0,.5,-.1,.5,-.5c.1,-.3,-.2,-.6,-.6,-.6c-.6,-.1,-1.2,-.6,-1.8,-.6c-.2,0,-.4,.1,-.5,.2c-2.5,1.1,-5.4,1.5,-7.1,4.1c-.3,.3,-.5,1,-1,1Z" /></clipPath>
<clipPath id="c10_1"><path d="M211.3,114.5c-2.9,-.9,-5.3,-2.2,-7.4,-4.3c-3.7,-3.5,-8.1,-5.4,-13.1,-5.4c-.8,0,-1.7,0,-2.7,.2c-2.2,.3,-4.3,.6,-6.5,1c-1.8,.3,-3.4,1.1,-4.7,2.4c-.3,.3,-.7,.6,-1.1,.6c-.1,0,-.3,-.1,-.5,-.3c-.3,-.4,.1,-1,.5,-1.4c1.9,-1.6,3.4,-3.4,6.5,-3.5c3.2,0,6.4,-.3,9.7,-.3c.1,0,.2,0,.3,0c4.7,0,8.7,1.6,12,5c1.7,1.9,4.2,2.8,6.1,4.5c.4,.3,1.1,.5,.9,1.5Z" /></clipPath>
<clipPath id="c11_1"><path d="M246.2,173.2c1.4,-12,4.1,-23.5,9.3,-34.1c.2,.3,0,.9,-.1,1.5c-1,3.4,-2.2,6.8,-3,10.3c-.9,4,-1.7,8,-2.1,12c-.3,2.4,-.7,4.7,-1.2,6.9c-.4,1.4,-1,2.8,-2.9,3.4Z" /></clipPath>
<clipPath id="c12_1"><path d="M172.5,211.2c-.4,0,-.8,-.2,-1.1,-.3c-1.9,-.7,-3.8,-1.3,-5.7,-2c-2,-.7,-3.9,-1,-5.8,-1c-3,0,-5.9,.6,-8.9,1.1c-.6,.1,-1.6,.4,-2.2,.4c-.3,0,-.6,-.1,-.7,-.4c-.3,-1.1,1.5,-1.2,2.4,-1.5c2.9,-1,5.7,-2.1,8.8,-2.1c.2,0,.4,0,.5,0c4.5,.2,8.6,1.6,12.5,3.6c.6,.4,1.3,.8,1,1.6c-.2,.4,-.5,.6,-.8,.6Z" /></clipPath>
<clipPath id="c13_1"><path d="M164.5,77.7c-.3,0,-.5,-.1,-.6,-.6c0,-.8,.6,-1,1.2,-1c1.8,-.1,3.4,-.4,5.1,-.9c2.8,-.8,5.3,-2.3,7.8,-3.5c2.5,-1.1,4.9,-1.7,7.3,-1.7c2.5,0,5.1,.6,7.6,1.7c1.6,.7,3.5,.9,4.7,2.8c-1.6,0,-2.9,-.5,-4.1,-1c-2.5,-1.2,-5.2,-1.7,-7.9,-2c-.4,0,-.7,0,-1.1,0c-3.3,0,-6,1.6,-8.9,2.9c-3.1,1.5,-6,3.3,-9.6,3.3c-.2,0,-.5,0,-.7,0q-.1,0,-.2,0c-.2,0,-.4,0,-.6,0Z" /></clipPath>
<clipPath id="c14_1"><path d="M164.1,79.5v0c-2.5,-.2,-5,-.5,-7.5,-.7c-4,-.5,-7.9,-1.6,-11.9,-1.6c-1.2,0,-2.4,.1,-3.6,.3c-1.6,.3,-3.2,.7,-4.8,1.4c-.3,.1,-.6,.3,-.9,.3c-.2,0,-.4,-.1,-.6,-.3c-.4,-.7,.4,-1,.9,-1.3c1,-.8,2.2,-1.3,3.5,-1.5c1.9,-.4,3.8,-.5,5.7,-.5c2.5,0,4.9,.2,7.4,.7c3.4,.5,6.7,1.9,10.2,2c.7,0,1.5,0,1.6,1.2Z" /></clipPath>
<clipPath id="c15_1"><path d="M129.8,74c-.2,0,-.4,-.1,-.5,-.3c-.3,-.7,.4,-1,.8,-1.1c3.2,-1.2,6.4,-2.2,9.4,-3.5c2,-.9,3.9,-1.2,5.7,-1.2c3.4,0,6.8,1.1,10.1,2.1c2.1,.7,4.3,1.2,6.4,1.9c-.5,.2,-1.1,.3,-1.6,.3c-1.5,0,-3,-.6,-4.4,-1.1c-3.4,-1,-6.8,-1.3,-10.2,-1.9c-.3,0,-.6,0,-.9,0c-2.1,0,-4,1.2,-6,1.8c-2.7,.9,-5.4,1.8,-8,2.8c-.3,0,-.6,.2,-.8,.2Z" /></clipPath>
<clipPath id="c16_1"><path d="M187.8,134.9c-1.9,0,-3.5,-.3,-4.9,-1.3c-3.3,-2.4,-6.5,-5,-8,-9c-.3,-1,-1,-1.8,-1.5,-2.7c-.2,-.5,-.6,-1.1,.1,-1.6c.2,-.1,.3,-.2,.5,-.2c.5,0,.8,.4,1.1,.8c.7,1,1.3,1.9,1.8,3c1.9,4.2,4.8,7.4,9.3,9c.9,.4,1.8,.8,2.7,2c-.3,0,-.7,0,-1.1,0Z" /></clipPath>
<clipPath id="c17_1"><path d="M123.4,116c-.2,0,-.3,0,-.4,-.1c-.7,-.3,-.3,-1.1,-.2,-1.6c1.8,-7.8,7.9,-10.5,14.6,-12.4c.3,-.1,.6,-.1,.9,-.1c.6,0,1.2,.2,1.6,.8c-.3,.8,-.9,.9,-1.5,1c-2.8,.5,-5.4,1.8,-7.9,3.1c-2.5,1.2,-3.9,3.2,-5,5.6c-.4,.9,-.8,1.8,-1.3,2.7c-.2,.4,-.4,1,-.8,1Z" /></clipPath>
<clipPath id="c18_1"><path d="M145.2,98.8c-.2,0,-.5,-.2,-.6,-.4c-.5,-.5,-1,-1.1,-1.4,-1.7c-.4,.9,-1.5,1.4,-2.5,1.4c-.4,0,-.9,-.1,-1.2,-.4c-1.6,-1.4,-3.2,-2.8,-4.9,-4c-.4,-.2,-.7,-.5,-.5,-1c.2,-.2,.4,-.3,.7,-.3c.1,0,.2,0,.4,0c.4,.2,.8,.3,1.1,.3c.4,0,.8,-.2,1.2,-.6c.1,-.1,.2,-.1,.4,-.1q.1,0,.2,0c2.3,0,6.8,3.4,7.5,5.7c.1,.3,.1,.8,0,.9c-.1,.2,-.3,.2,-.4,.2Z" /></clipPath>
<clipPath id="c19_1"><path d="M178.2,98.4c-.1,0,-.3,0,-.4,-.2c-.5,-.6,.2,-1.3,.5,-1.8c.7,-1.1,1.4,-2.2,2.2,-3.2c.3,-.4,.7,-.8,1.3,-.8c.1,0,.2,0,.3,0c.2,.2,.4,.2,.5,.2c.4,0,.6,-.4,1,-.5c.4,-.2,.9,-.9,1.4,-.9c.3,0,.6,.3,.9,1c0,0,.1,.1,.1,.1c.2,0,.5,-.3,.8,-.3c.2,-.1,.5,-.2,.8,-.2c.2,0,.4,.1,.6,.4c.2,.6,-.3,1,-.7,1.3c-1.7,1.2,-3.2,2.5,-4.5,4.1c-.1,.1,-.2,.3,-.2,.3c-.4,-.3,-.6,-.4,-.9,-.4c-.7,0,-1.3,.6,-2,.7c-.2,0,-.3,-.5,-.6,-.5c0,0,-.1,0,-.1,0c-.4,.1,-.6,.7,-1,.7Z" /></clipPath>
<clipPath id="c20_1"><path d="M168.1,251.4c-3.8,-.1,-5.8,-2.6,-7.1,-5.4c-1.1,-2.4,-2.4,-4.6,-4.1,-6.6c-.4,-.5,-1,-1.2,-.2,-1.7c.2,-.1,.3,-.2,.5,-.2c.4,0,.7,.5,1,.8c1.3,1.2,2,2.9,2.9,4.3c.7,1.2,1.5,2.4,2.3,3.5c1.2,1.8,2.7,2.9,4.9,3c.7,0,1.9,-.1,1.8,1.1c-.1,1,-1.1,1.2,-2,1.2Z" /></clipPath>
<clipPath id="c21_1"><path d="M193.2,216.2c-1,0,-.8,-1.1,-.8,-1.8c-.2,-3.1,.2,-6.3,-.5,-9.4c-.3,-1.1,-.6,-2.3,-1.1,-3.4c-.3,-.5,-.2,-1.1,.3,-1.4c.1,-.1,.3,-.2,.4,-.2c.4,0,.5,.5,.8,.8c1.8,2.1,1.7,4.8,2.2,7.3c-.5,2.1,-.4,4.2,-.2,6.2c0,.9,-.2,1.9,-1.1,1.9Z" /></clipPath>
<clipPath id="c22_1"><path d="M116.5,106.9c-.3,0,-.6,-.2,-.8,-.5c-.6,-.6,.1,-1.2,.6,-1.7c.8,-.8,1.8,-1.4,1.8,-2.8c-.1,-.8,-1.4,-1.6,0,-2.4c.9,-.6,2.8,-1.6,4.2,-1.6c.4,.3,2.5,-.2,.6,1.5c-.4,.3,0,.4,.1,.5c1,.8,.2,.9,-.4,1.1c-.5,.2,-1.2,.2,-1.7,.4c-.5,.2,-1.3,.5,-1.1,1c1,2.3,-1.3,2.7,-2.2,3.8c-.3,.4,-.7,.7,-1.1,.7Z" /></clipPath>
<clipPath id="c23_1"><path d="M132.6,125.1c-3.2,0,-5.4,-2.2,-7.9,-4c-.3,-.3,-.5,-.6,-.3,-1.1c.2,-.3,.4,-.4,.7,-.4c.1,0,.2,0,.3,0c.4,.1,.7,.1,1,.4c2.8,2.4,6.3,2.7,9.7,3.6c.3,0,.7,.2,.7,.5c0,.4,-.3,.6,-.6,.7c-.5,.2,-.9,.2,-1.4,.2c-.4,0,-.8,0,-1.2,0c-.3,0,-.7,.1,-1,.1Z" /></clipPath>
<clipPath id="c24_1"><path d="M137.3,99c-.2,0,-.4,-.1,-.6,-.3C135,97.1,132.6,97,130.8,95.6c-.7,-.5,-1.7,-.7,-2.6,-1c-.7,-.2,-1.5,-.2,-1.4,-1.1c.1,-.5,.5,-.6,.9,-.6c.2,0,.4,0,.5,0c.7,-.2,1.3,-.2,1.8,-.2c3.5,0,5.4,2.8,7.6,5.2c.2,.2,.5,.6,.2,.9c-.2,.1,-.3,.2,-.5,.2Z" /></clipPath>
<clipPath id="c25_1"><path d="M177.4,116.9c-.3,0,-.8,0,-1.3,-.2c2.7,-1.2,4.1,-2.9,5.4,-4.8c1.8,-2.5,4.6,-3.8,6.9,-5.7c.5,-.5,1.3,-.7,2,-.9c.1,0,.3,-.1,.4,-.1c.3,0,.6,.2,.7,.6c.1,.5,-.3,.6,-.7,.8c-2.9,1.4,-5.6,3.2,-7.7,5.6c-1.1,1.3,-1.6,3,-3.2,3.8c-.7,.4,-1.4,.9,-2.5,.9Z" /></clipPath>
<clipPath id="c26_1"><path d="M217.8,121.9c-.5,0,-1,0,-1.6,-.1c-.3,.1,-.6,.1,-1,.1c-1.9,0,-3.7,-1,-5.2,-2.5c-.4,-.3,-1.1,-.6,-.6,-1.2c.1,-.2,.3,-.3,.4,-.3c.3,0,.6,.2,.8,.3c2.1,1.3,4.2,1.8,6.4,1.8c1.4,0,2.8,-.2,4.2,-.5c.2,0,.5,-.1,.7,-.1c.2,0,.4,.1,.5,.4c.2,.5,-.3,.7,-.6,.9c-1.2,.9,-2.5,1.2,-4,1.2Z" /></clipPath>
<clipPath id="c27_1"><path d="M137.9,137.6c-.6,-.1,-.9,-.3,-.5,-.9c.1,-.1,.3,-.3,.5,-.4c3.5,-2.2,6.5,-5,8.7,-8.6c.1,-.3,.4,-.8,.8,-.8c.1,0,.2,.1,.3,.1c.6,.3,.2,.8,0,1.2c-1.8,4.3,-5.1,7.3,-9.2,9.3c-.2,0,-.4,.1,-.6,.1Z" /></clipPath>
<clipPath id="c28_1"><path d="M127.2,99.3c-.2,0,-.3,0,-.5,-.1c-1.7,-.7,-3.1,-2,-5.1,-2h-.1c-.2,0,-.4,-.3,-.2,-.6c.1,-.4,.4,-.5,.8,-.6c.2,0,.3,0,.5,0c.2,0,.3,0,.5,0c.7,0,1.3,-.1,1.7,-1.1c0,-.2,.3,-.3,.6,-.3c.4,0,1,.2,1.4,.4c1.2,.5,2.4,1.2,3.5,1.9c.5,.3,1.1,.6,.8,1.2c-.2,.3,-.4,.4,-.6,.4c-.2,0,-.6,-.2,-.8,-.3c-1,-.5,-1.9,-1,-2.9,-1.6c-.4,-.2,-.8,-.5,-1.4,-.5c-.2,0,-.5,.1,-.8,.2c1.1,.6,1.9,1.1,2.6,1.6c.4,.2,.9,.5,.6,1.1c-.1,.2,-.4,.3,-.6,.3Z" /></clipPath>
<clipPath id="c29_1"><path d="M134.5,212.8c-.1,0,-.2,0,-.3,0c-.5,-.2,-.5,-.8,-.5,-1.6c1,-2.7,1,-6,2.4,-8.9c.3,-.5,.6,-1.1,1.2,-1.1c.1,0,.2,0,.3,.1c.8,.3,.3,1.1,0,1.7c-1,2.3,-.9,4.8,-1.7,7.1c-.2,.7,-.4,1.3,-.7,1.9c-.1,.4,-.3,.8,-.7,.8Z" /></clipPath>
<clipPath id="c30_1"><path d="M125.6,133.1c-.5,0,-1,.1,-1.1,-.4c-.2,-.5,.3,-.7,.6,-.8c1.4,-.6,2.7,-1.2,4.2,-1.5c2.6,-.6,5.4,-.8,8,-1.7c.2,0,.5,-.1,.7,-.1c.3,0,.5,.1,.6,.5c.1,.5,-.5,.7,-1,.8c-2,.5,-4,1,-6,1.4c-2.1,.5,-4.1,1.2,-6,1.8Z" /></clipPath>
<clipPath id="c31_1"><path d="M166.1,96.4c-.4,0,-.6,-.5,-.6,-.8c.3,-4.4,1.5,-8.5,3.6,-12.4c.7,1.5,.1,2.8,-.3,4.1c-.8,2.7,-1.5,5.4,-2,8.2c0,.4,-.1,.9,-.6,.9h-.1Z" /></clipPath>
<clipPath id="c32_1"><path d="M161.6,67.1c-6,-1.7,-12.1,-3.5,-18.3,-5.3c.6,-.6,1.3,-.9,2.1,-.9c.4,0,.8,.1,1.3,.3c4.9,2.1,10,3.7,15,5.4c0,.2,-.1,.4,-.1,.5Z" /></clipPath>
<clipPath id="c33_1"><path d="M156.7,95.8c0,0,-.1,0,-.1,0c-.7,-.1,-.4,-.7,-.4,-1.2c.1,-.9,.2,-1.8,.3,-2.8c.1,-2.4,-.2,-4.8,-.6,-7.2c-.1,-.2,-.1,-.5,-.1,-.8c0,-.5,0,-1.2,.6,-1.3c0,0,.1,0,.1,0c.6,0,.7,.6,.8,1.1c.2,1.3,.4,2.5,.5,3.8c.2,2.5,-.1,4.9,-.5,7.4c0,.4,-.1,1,-.6,1Z" /></clipPath>
<clipPath id="c34_1"><path d="M144.9,109.4v0c-1.8,-.7,-3,-2,-4.5,-2.9c-.6,-.4,-1.3,-.4,-2.1,-.4c-.3,0,-.6,0,-1,0c-.6,0,-1.2,-.1,-1.8,-.3c1.1,-.7,2.4,-1,3.6,-1c2.7,0,5.2,1.7,5.8,4.6Z" /></clipPath>
<clipPath id="c35_1"><path d="M175.1,98.9c-.1,0,-.3,-.1,-.4,-.1c-.5,-.5,-.4,-1.1,-.5,-1.7c0,-1.8,1.8,-4,3.5,-4.5c.2,-.1,.4,-.1,.6,-.1c.5,0,.7,.3,.4,1c-.7,1.9,-2.7,3.1,-3.3,5.2c0,.1,-.1,.2,-.3,.2Z" /></clipPath>
<clipPath id="c36_1"><path d="M155.3,104.8c-.4,0,-.5,-.5,-.8,-.6c-.1,-.3,-.2,-.5,-.3,-.8c-.8,-2,-1.5,-3.9,-3.3,-5.4c-.6,-.5,-1.1,-1.4,-.9,-2.3c0,-.2,.2,-.4,.4,-.4q.1,0,.2,0c.8,.3,1.4,.9,1.8,1.7c1.1,2.2,2.6,4.2,3,6.7c.1,.4,.5,.8,0,1.1c0,0,-.1,0,-.1,0Z" /></clipPath>
<clipPath id="c37_1"><path d="M188,84.9c-.2,0,-.4,0,-.6,-.2c-.4,-.5,0,-1,.3,-1.2c2,-1.2,3.9,-2.4,5.9,-3.5c.1,0,.3,-.1,.4,-.1c.3,0,.6,.2,.7,.6c-.1,.2,-.2,.4,-.4,.6c-1.9,1.2,-3.7,2.4,-5.6,3.6c-.2,.1,-.5,.2,-.7,.2Z" /></clipPath>
<clipPath id="c38_1"><path d="M174.4,89.6v0c.5,-2.5,1.7,-4.5,3.2,-6.4c.1,-.1,.3,-.2,.4,-.2c.3,0,.5,.3,.4,.5c-1,2.2,-1.8,4.6,-4,6.1Z" /></clipPath>
<clipPath id="c39_1"><path d="M171.3,100.4c-.9,-.1,-.7,-.8,-.8,-1.4c.1,-1.1,.5,-2.2,1,-3.2c.2,-.3,.4,-.6,.8,-.6c.1,0,.2,0,.3,.1c.6,.2,.8,.6,.6,1.2c-.3,1,-.6,1.9,-.9,2.9c-.2,.5,-.4,1,-1,1Z" /></clipPath>
<clipPath id="c40_1"><path d="M149.3,89.5v0C148.5,87,147.8,84.6,147,81.9c1.7,.7,3.2,5,2.3,7.6Z" /></clipPath>
<clipPath id="c41_1"><path d="M217,114c-.7,0,-1.3,-.1,-2,-.3c-.5,-.1,-.9,-.4,-.7,-1c.1,-.4,.4,-.6,.8,-.6q.1,0,.1,0c1.6,.1,3.2,.2,5.2,.4c-1.1,1.1,-2.3,1.5,-3.4,1.5Z" /></clipPath>
<clipPath id="c42_1"><path d="M134.6,114.9c0,0,-.1,0,-.2,0c-1.3,-.2,-1.7,-1,-1.7,-2.3c.1,-1.8,1.1,-2.8,2.9,-2.8q.1,0,.1,0c1.2,0,1.8,.9,1.8,2.3c.1,1.4,-1.4,2.8,-2.9,2.8Z" /></clipPath>

</defs>
<g clip-path="url(#c_1)" fill="#5c9234">
<g clip-path="url(#c0_1)">
<path d="M35.1,-3H330.4V355.5H35.1Z" class="g0_1" />
</g>
<g clip-path="url(#c1_1)">
<path d="M123.3,84.7H165V199.5H123.3Z" class="g0_1" />
</g>
<g clip-path="url(#c2_1)">
<path d="M130.9,174.8h65.9v29.5H130.9Z" class="g0_1" />
</g>
<g clip-path="url(#c3_1)">
<path d="M124.6,210.4h88.7v32.7H124.6Z" class="g0_1" />
</g>
<g clip-path="url(#c4_1)">
<path d="M175.3,100.6h41.4V127H175.3Z" class="g0_1" />
</g>
<g clip-path="url(#c5_1)">
<path d="M176.7,84.4h45.4v26.8H176.7Z" class="g0_1" />
</g>
<g clip-path="url(#c6_1)">
<path d="M117.5,99.5h40.2v26.7H117.5Z" class="g0_1" />
</g>
<g clip-path="url(#c7_1)">
<path d="M190.7,199h38.5v47.3H190.7Z" class="g0_1" />
</g>
<g clip-path="url(#c8_1)">
<path d="M171.6,149.2h31.9v56.1H171.6Z" class="g0_1" />
</g>
<g clip-path="url(#c9_1)">
<path d="M150.3,146.2h35.8v26.3H150.3Z" class="g0_1" />
</g>
<g clip-path="url(#c10_1)">
<path d="M167.6,95.8H219v26.4H167.6Z" class="g0_1" />
</g>
<g clip-path="url(#c11_1)">
<path d="M238.6,131.4h24.6v49.5H238.6Z" class="g0_1" />
</g>
<g clip-path="url(#c12_1)">
<path d="M140.4,197.8H181v21H140.4Z" class="g0_1" />
</g>
<g clip-path="url(#c13_1)">
<path d="M156.3,62.4h49v23h-49Z" class="g0_1" />
</g>
<g clip-path="url(#c14_1)">
<path d="M127.1,67.9h44.7V87.2H127.1Z" class="g0_1" />
</g>
<g clip-path="url(#c15_1)">
<path d="M121.6,60.2h47.8V81.6H121.6Z" class="g0_1" />
</g>
<g clip-path="url(#c16_1)">
<path d="M165.4,112.5h31.2v30H165.4Z" class="g0_1" />
</g>
<g clip-path="url(#c17_1)">
<path d="M115,94.1h32.5v29.6H115Z" class="g0_1" />
</g>
<g clip-path="url(#c18_1)">
<path d="M126.4,84.4h26.9v22H126.4Z" class="g0_1" />
</g>
<g clip-path="url(#c19_1)">
<path d="M170,83.6h25.9v22.5H170Z" class="g0_1" />
</g>
<g clip-path="url(#c20_1)">
<path d="M148.7,229.9h29V259h-29Z" class="g0_1" />
</g>
<g clip-path="url(#c21_1)">
<path d="M183,192.4h19.1v31.4H183Z" class="g0_1" />
</g>
<g clip-path="url(#c22_1)">
<path d="M107.8,90.3h23.5v24.2H107.8Z" class="g0_1" />
</g>
<g clip-path="url(#c23_1)">
<path d="M116.7,112h27.7v20.7H116.7Z" class="g0_1" />
</g>
<g clip-path="url(#c24_1)">
<path d="M119.2,85h26.4v21.6H119.2Z" class="g0_1" />
</g>
<g clip-path="url(#c25_1)">
<path d="M168.5,97.6h30.7v27H168.5Z" class="g0_1" />
</g>
<g clip-path="url(#c26_1)">
<path d="M201.6,110.3h28.5v19.3H201.6Z" class="g0_1" />
</g>
<g clip-path="url(#c27_1)">
<path d="M129.6,119.3h26v25.9h-26Z" class="g0_1" />
</g>
<g clip-path="url(#c28_1)">
<path d="M113.6,87h25.2v20H113.6Z" class="g0_1" />
</g>
<g clip-path="url(#c29_1)">
<path d="M126.1,193.5h19.6v26.9H126.1Z" class="g0_1" />
</g>
<g clip-path="url(#c30_1)">
<path d="M116.8,120.9h29.5v19.9H116.8Z" class="g0_1" />
</g>
<g clip-path="url(#c31_1)">
<path d="M157.9,75.6H177v28.5H157.9Z" class="g0_1" />
</g>
<g clip-path="url(#c32_1)">
<path d="M135.7,53.3h33.6V74.8H135.7Z" class="g0_1" />
</g>
<g clip-path="url(#c33_1)">
<path d="M148.1,74.8h17.4v28.6H148.1Z" class="g0_1" />
</g>
<g clip-path="url(#c34_1)">
<path d="M127.8,97.2h24.8V117H127.8Z" class="g0_1" />
</g>
<g clip-path="url(#c35_1)">
<path d="M166.6,84.8h19.9v21.7H166.6Z" class="g0_1" />
</g>
<g clip-path="url(#c36_1)">
<path d="M142.3,87.6h21v24.8h-21Z" class="g0_1" />
</g>
<g clip-path="url(#c37_1)">
<path d="M179.6,72.3h22.8V92.6H179.6Z" class="g0_1" />
</g>
<g clip-path="url(#c38_1)">
<path d="M166.8,75.4h19.3V97.2H166.8Z" class="g0_1" />
</g>
<g clip-path="url(#c39_1)">
<path d="M162.9,87.6h18V108h-18Z" class="g0_1" />
</g>
<g clip-path="url(#c40_1)">
<path d="M139.4,74.3h17.8V97.2H139.4Z" class="g0_1" />
</g>
<g clip-path="url(#c41_1)">
<path d="M206.6,104.5h21.5v17.1H206.6Z" class="g0_1" />
</g>
<g clip-path="url(#c42_1)">
<path d="M125.1,102.1h20.1v20.4H125.1Z" class="g0_1" />
</g>

</g>
</svg>
